<svg width="48" height="39" viewBox="0 0 48 39" fill="none" xmlns="http://www.w3.org/2000/svg">
<path d="M18.0766 31.0848C19.8207 31.8735 20.5844 35.0001 20.5844 35.0001L33.3472 34.965C33.1078 34.4686 32.836 33.9884 32.5336 33.5276C32.2921 33.0349 32.0892 32.5242 31.927 32.0001C31.6284 30.9889 31.4216 29.9529 31.3092 28.9045C31.1196 27.2937 31.3623 25.6616 32.0124 24.1757C32.5855 22.8689 33.5806 21.8336 34.3397 20.6372C35.0907 19.4685 35.4949 18.111 35.5057 16.7219C35.534 15.3147 35.3613 13.9107 34.9926 12.5524C34.5107 10.9068 33.5051 9.46346 32.1284 8.44137C29.6104 6.46441 27.0375 5.35898 23.7807 5.52475C22.151 5.63824 20.5318 5.87072 18.9359 6.22034C17.198 6.57017 15.3578 7.22001 14.1105 8.53696C13.2597 9.44617 12.6023 10.5187 12.1783 11.6895C11.9796 12.2719 11.8179 12.8663 11.6942 13.4692C11.4859 14.125 11.2346 14.7663 10.9422 15.3892C10.8562 15.5789 10.8189 15.787 10.8334 15.9948C10.932 16.6985 11.9866 17 11.9947 17.7267C11.9839 17.8871 11.9346 18.0425 11.8508 18.1797C11.2322 19.4871 10.4728 20.723 9.58608 21.8657C9.3771 22.1224 8.9515 22.6284 9.00439 22.9914C9.04201 23.2492 9.35117 23.4633 9.54185 23.6052C9.94863 23.9072 10.7769 24.1136 10.8802 24.6587C10.934 24.9362 10.9007 25.2237 10.7846 25.4814C10.5029 26.0748 10.1912 26.3911 10.4124 26.5772C10.6335 26.7633 11.2259 27.2103 11.2259 27.2103C11.2259 27.2103 10.6635 27.9292 10.9747 28.1499C11.3617 28.4245 11.8534 28.5511 11.9851 29.0652C12.0236 29.4725 11.9829 29.8835 11.8651 30.2754C11.8251 30.6587 11.8752 31.0461 12.0115 31.4067C12.1951 32.1279 12.9154 32.5753 13.6432 32.4201C15.1441 32.0556 16.6241 31.6099 18.0766 31.0848Z" fill="#4DA6FF"/>
<path fill-rule="evenodd" clip-rule="evenodd" d="M30.3559 23.3052C30.3559 21.5311 32.3491 20.7684 33.3442 19.6579C34.3991 18.4486 34.9648 16.8893 34.9306 15.285C34.9036 11.9078 32.2065 9.15891 28.8304 9.06781C25.4541 9.15836 22.7563 11.907 22.7287 15.2844C22.6946 16.8888 23.2603 18.4481 24.3152 19.6573C25.3123 20.7684 27.305 21.5311 27.305 23.3052H30.3559Z" fill="#F0C419"/>
<path d="M13.6916 13.8816C13.5576 13.8521 13.4412 13.7698 13.3689 13.6533C13.2965 13.5367 13.2742 13.3959 13.3072 13.2627C13.3871 12.9095 13.4873 12.5611 13.6072 12.2194C13.9609 11.2407 14.5088 10.3438 15.2181 9.58239C16.0438 8.71188 17.3979 8.08137 19.2432 7.71425C19.5186 7.65949 19.7864 7.83842 19.8411 8.11391C19.8959 8.3894 19.717 8.65712 19.4415 8.71188C17.8072 9.0368 16.6347 9.5651 15.9569 10.281C15.3424 10.942 14.8678 11.7203 14.5616 12.5692C14.4551 12.8749 14.3662 13.1864 14.2952 13.5022C14.2311 13.7721 13.9626 13.9409 13.6916 13.8816Z" fill="#ECF0F1"/>
<path d="M13.0676 16.1865C13.3485 16.1865 13.5761 15.9588 13.5761 15.678C13.5761 15.3972 13.3485 15.1695 13.0676 15.1695C12.7868 15.1695 12.5592 15.3972 12.5592 15.678C12.5592 15.9588 12.7868 16.1865 13.0676 16.1865Z" fill="#ECF0F1"/>
<path d="M27.305 26.356H30.3558V26.8645C30.3558 27.707 29.6729 28.3899 28.8304 28.3899C27.9879 28.3899 27.305 27.707 27.305 26.8645V26.356Z" fill="#95A5A5"/>
<path d="M38.4915 15.678H36.966C36.6852 15.678 36.4576 15.4504 36.4576 15.1695C36.4576 14.8887 36.6852 14.6611 36.966 14.6611H38.4915C38.7723 14.6611 38.9999 14.8887 38.9999 15.1695C38.9999 15.4504 38.7723 15.678 38.4915 15.678Z" fill="#F0C419"/>
<path d="M34.5828 9.92561C34.377 9.92577 34.1913 9.80181 34.1126 9.61161C34.0339 9.42141 34.0776 9.20251 34.2233 9.05713L35.3023 7.97865C35.43 7.84647 35.619 7.79346 35.7968 7.83999C35.9746 7.88653 36.1134 8.02536 36.1599 8.20314C36.2065 8.38092 36.1535 8.56997 36.0213 8.69764L34.9428 9.77663C34.8473 9.87212 34.7178 9.92572 34.5828 9.92561Z" fill="#F0C419"/>
<path d="M28.8304 7.54238C28.5496 7.54238 28.3219 7.31473 28.3219 7.03391V5.50848C28.3219 5.22765 28.5496 5 28.8304 5C29.1112 5 29.3389 5.22765 29.3389 5.50848V7.03391C29.3389 7.31473 29.1112 7.54238 28.8304 7.54238Z" fill="#F0C419"/>
<path d="M23.078 9.92561C22.943 9.92572 22.8134 9.87212 22.718 9.77663L21.6395 8.69764C21.5073 8.56997 21.4543 8.38092 21.5008 8.20314C21.5474 8.02536 21.6862 7.88653 21.864 7.83999C22.0418 7.79346 22.2308 7.84647 22.3585 7.97865L23.4375 9.05713C23.5832 9.20251 23.6269 9.42141 23.5482 9.61161C23.4695 9.80181 23.2838 9.92577 23.078 9.92561Z" fill="#F0C419"/>
<path d="M20.6949 15.678H19.1694C18.8886 15.678 18.661 15.4504 18.661 15.1695C18.661 14.8887 18.8886 14.6611 19.1694 14.6611H20.6949C20.9757 14.6611 21.2033 14.8887 21.2033 15.1695C21.2033 15.4504 20.9757 15.678 20.6949 15.678Z" fill="#F0C419"/>
<path d="M28.8304 19.2373C31.3579 19.2373 33.4067 16.9608 33.4067 14.1526C33.4067 11.3443 31.3579 9.06781 28.8304 9.06781C26.303 9.06781 24.2542 11.3443 24.2542 14.1526C24.2542 16.9608 26.303 19.2373 28.8304 19.2373Z" fill="#F3D55B"/>
<path d="M29.8474 23.8136C29.5666 23.8136 29.3389 23.586 29.3389 23.3051V17.2034H28.3219V23.3051C28.3219 23.586 28.0943 23.8136 27.8135 23.8136C27.5326 23.8136 27.305 23.586 27.305 23.3051V17.2034H26.7965C25.954 17.2034 25.2711 16.5205 25.2711 15.678C25.2711 14.8355 25.954 14.1526 26.7965 14.1526C27.639 14.1526 28.3219 14.8355 28.3219 15.678V16.1865H29.3389V15.678C29.3389 14.8355 30.0219 14.1526 30.8643 14.1526C31.7068 14.1526 32.3898 14.8355 32.3898 15.678C32.3898 16.5205 31.7068 17.2034 30.8643 17.2034H30.3559V23.3051C30.3559 23.586 30.1282 23.8136 29.8474 23.8136ZM30.3559 16.1865H30.8643C31.1452 16.1865 31.3728 15.9588 31.3728 15.678C31.3728 15.3972 31.1452 15.1695 30.8643 15.1695C30.5835 15.1695 30.3559 15.3972 30.3559 15.678V16.1865ZM26.7965 15.1695C26.5157 15.1695 26.288 15.3972 26.288 15.678C26.288 15.9588 26.5157 16.1865 26.7965 16.1865H27.305V15.678C27.305 15.3972 27.0773 15.1695 26.7965 15.1695Z" fill="#F29C1F"/>
<path d="M30.3564 23.3051H27.3055C26.7439 23.3051 26.2886 23.7605 26.2886 24.3221V25.3391C26.2886 25.9007 26.7439 26.356 27.3055 26.356H30.3564C30.918 26.356 31.3733 25.9007 31.3733 25.3391V24.3221C31.3733 23.7605 30.918 23.3051 30.3564 23.3051Z" fill="#BDC3C7"/>
</svg>
