<svg width="24" height="24" viewBox="0 0 24 24" fill="none" xmlns="http://www.w3.org/2000/svg">
<path d="M10.8632 7.99553L2.29858 20.9648L23.9944 20.9954L11.7376 7.20679L10.8632 7.99553Z" fill="#414142"/>
<path d="M15.6163 3.85525L14.2768 3L1.27455 19.3288L2.61405 20.184L15.6163 3.85525Z" fill="#414142"/>
<path d="M21.3235 20.185L22.663 19.3297L10.5227 4.08351L9.18323 4.93876L21.3235 20.185Z" fill="#EE4823"/>
<path d="M11.888 8.24233C11.888 8.24233 12.1136 11.649 10.4684 16.3786C9.77253 18.2758 8.93446 19.8198 7.58969 20.9953C4.2684 20.9953 0 20.9388 0 20.9388L10.957 7.16833L11.888 8.24233Z" fill="#F2AB1D"/>
<path d="M11.9719 7.44775C11.9719 7.44775 10.6892 10.5271 14.2563 16.0627C17.8737 20.7454 24 21 24 21L13.5968 7.95029L11.9719 7.44775Z" fill="#EE4823"/>
</svg>
