<svg width="34" height="34" viewBox="0 0 34 34" fill="none" xmlns="http://www.w3.org/2000/svg">
<g style="mix-blend-mode:multiply" opacity="0.02">
<path d="M16.749 29C9.46186 29 3.98249 28.0284 4.00004 27.194C4.0211 26.002 9.13191 26.002 16.4155 26.002C21.8563 26.002 29.9612 25.8973 29.9999 27.194C30.0385 28.4221 22.2073 29 16.749 29Z" fill="#FDFDFD"/>
</g>
<g style="mix-blend-mode:multiply" opacity="0.98">
<path d="M16.6621 30.6148C12.609 30.6148 4.23535 30.2949 4.23535 29.4242C4.23535 28.5536 12.8846 28.3956 16.7553 28.3956C20.626 28.3956 30.5683 28.5293 30.5683 29.408C30.5683 30.2868 21.3597 30.6918 16.6621 30.6148Z" fill="#9D9D9D"/>
</g>
<path d="M30.5599 29.1369C30.5072 29.1004 30.4099 29.1814 30.3248 29.2786C29.5345 28.7035 24.4478 28.2986 17.282 28.2986C10.1161 28.2986 5.02543 28.7035 4.23508 29.2786C4.14996 29.1814 4.05269 29.1004 4 29.1369C4.01966 29.2641 4.07927 29.3818 4.17023 29.473C4.60391 30.0642 9.84455 30.5299 17.282 30.5299C24.7194 30.5299 29.96 30.0642 30.3897 29.473C30.4793 29.3808 30.5387 29.2636 30.5599 29.1369Z" fill="url(#paint0_linear)"/>
<path d="M30.5599 27.2906V29.1373C30.5528 29.1808 30.5314 29.2207 30.4991 29.2507C29.8263 29.8703 24.614 30.3603 17.282 30.3603C9.49599 30.3603 4 29.8095 4 29.1454V27.2906H30.5599Z" fill="url(#paint1_linear)"/>
<path d="M30.5479 27.2455C30.5077 27.1394 30.4439 27.0439 30.3614 26.966C30.3688 27.0103 30.3688 27.0554 30.3614 27.0997C29.1982 26.5935 24.2413 26.2047 17.2943 26.2047C10.3473 26.2047 5.37819 26.5935 4.21496 27.0835C4.20755 27.0392 4.20755 26.9941 4.21496 26.9498C4.13395 27.0289 4.07044 27.1241 4.02852 27.2293C4.02435 27.2438 4.02435 27.2593 4.02852 27.2738C4.02852 27.8732 9.52451 28.3551 17.3105 28.3551C25.0965 28.3551 30.5641 27.8934 30.5641 27.29C30.563 27.2739 30.5574 27.2585 30.5479 27.2455Z" fill="#FDFDFD"/>
<path d="M17.2825 28.1369C24.5374 28.1369 30.4186 27.6564 30.4186 27.0638C30.4186 26.4711 24.5374 25.9906 17.2825 25.9906C10.0277 25.9906 4.14648 26.4711 4.14648 27.0638C4.14648 27.6564 10.0277 28.1369 17.2825 28.1369Z" fill="url(#paint2_linear)"/>
<g style="mix-blend-mode:multiply" opacity="0.02">
<path d="M18.3755 28.2583C11.9473 28.2583 6.54046 27.9019 6.55668 27.2256C6.59315 26.2739 11.7082 26.2739 18.1323 26.2739C24.5564 26.2739 29.8863 26.1929 29.9349 27.2297C29.9835 28.2664 24.8321 28.2623 18.3755 28.2583Z" fill="#FDFDFD"/>
</g>
<g style="mix-blend-mode:multiply" opacity="0.04">
<path d="M18.3483 28.2542C11.989 28.2542 6.54974 27.9019 6.56595 27.2216C6.59433 26.274 11.7539 26.274 18.1092 26.274C24.4644 26.274 29.8631 26.193 29.8996 27.2216C29.9361 28.2502 24.7238 28.2542 18.3483 28.2542Z" fill="#FCFCFC"/>
</g>
<g style="mix-blend-mode:multiply" opacity="0.06">
<path d="M18.3121 28.246C12.0217 28.246 6.55811 27.8977 6.55811 27.2214C6.59458 26.2738 11.7988 26.2738 18.081 26.2738C24.3633 26.2738 29.835 26.1968 29.8593 27.2173C29.8836 28.2379 24.6349 28.25 18.3121 28.246Z" fill="#FAFAFA"/>
</g>
<g style="mix-blend-mode:multiply" opacity="0.08">
<path d="M18.2794 28.2379C12.0579 28.2379 6.55378 27.8937 6.56594 27.2174C6.59431 26.2738 11.8633 26.2738 18.0564 26.2738C24.2496 26.2738 29.8104 26.205 29.8104 27.2174C29.8104 28.2298 24.5454 28.246 18.2794 28.2379Z" fill="#F8F8F8"/>
</g>
<g style="mix-blend-mode:multiply" opacity="0.1">
<path d="M18.2463 28.2338C12.0937 28.2338 6.5572 27.8896 6.56936 27.2133C6.59367 26.2738 11.8911 26.2738 18.0315 26.2738C24.1719 26.2738 29.753 26.205 29.7855 27.2093C29.8179 28.2136 24.4556 28.2379 18.2463 28.2338Z" fill="#F7F7F7"/>
</g>
<g style="mix-blend-mode:multiply" opacity="0.12">
<path d="M18.2178 28.2256C12.1382 28.2256 6.5611 27.8854 6.57326 27.2132C6.59353 26.2737 11.9355 26.2737 18.007 26.2737C24.0786 26.2737 29.7124 26.2089 29.761 27.2051C29.8096 28.2013 24.3663 28.2337 18.2178 28.2256Z" fill="#F5F5F5"/>
</g>
<g style="mix-blend-mode:multiply" opacity="0.14">
<path d="M18.1854 28.2218C12.1665 28.2218 6.5611 27.8816 6.57326 27.2094C6.59353 26.2942 11.9801 26.2739 17.9787 26.2739C23.9772 26.2739 29.6961 26.2213 29.6961 27.2094C29.6961 28.1975 24.2772 28.2258 18.1854 28.2218Z" fill="#F3F3F3"/>
</g>
<g style="mix-blend-mode:multiply" opacity="0.16">
<path d="M18.1533 28.2138C12.2033 28.2138 6.56549 27.8939 6.59386 27.2055C6.59386 26.2983 12.025 26.274 17.9425 26.274C23.86 26.274 29.6276 26.2174 29.6559 27.1974C29.6843 28.1774 24.1883 28.2219 18.1533 28.2138Z" fill="#F2F2F2"/>
</g>
<g style="mix-blend-mode:multiply" opacity="0.18">
<path d="M18.1208 28.2056C12.2398 28.2056 6.56951 27.8938 6.59383 27.2054C6.59383 26.3023 12.0736 26.2739 17.9425 26.2739C23.8114 26.2739 29.6113 26.2213 29.6397 27.1892C29.6681 28.157 24.0991 28.2178 18.1208 28.2056Z" fill="#F0F0F0"/>
</g>
<g style="mix-blend-mode:multiply" opacity="0.2">
<path d="M18.0883 28.2015C12.2681 28.2015 6.59375 27.8694 6.59375 27.2012C6.59375 26.3062 12.1181 26.2738 17.9059 26.2738C23.6937 26.2738 29.5626 26.2253 29.591 27.185C29.6194 28.1448 24.022 28.2096 18.0883 28.2015Z" fill="#EEEEEE"/>
</g>
<g style="mix-blend-mode:multiply" opacity="0.22">
<path d="M18.0599 28.1934C12.3086 28.1934 6.59375 27.8654 6.59375 27.1972C6.59375 26.3103 12.1627 26.2739 17.8776 26.2739C23.5924 26.2739 29.5261 26.2253 29.5505 27.181C29.5748 28.1367 23.9207 28.2055 18.0599 28.1934Z" fill="#EDEDED"/>
</g>
<g style="mix-blend-mode:multiply" opacity="0.24">
<path d="M18.0277 28.1854C12.3533 28.1854 6.58175 27.8614 6.58985 27.1973C6.59391 26.3144 12.2074 26.2739 17.8534 26.2739C23.4993 26.2739 29.4858 26.2334 29.5141 27.177C29.5425 28.1206 23.8317 28.2016 18.0277 28.1854Z" fill="#EBEBEB"/>
</g>
<g style="mix-blend-mode:multiply" opacity="0.25">
<path d="M17.9951 28.1811C12.3816 28.1811 6.58161 27.8571 6.59377 27.1929C6.59377 26.3182 12.2681 26.2737 17.8289 26.2737C23.3898 26.2737 29.4491 26.2737 29.4735 27.1889C29.4978 28.1041 23.7424 28.1932 17.9951 28.1811Z" fill="#EAEAEA"/>
</g>
<g style="mix-blend-mode:multiply" opacity="0.27">
<path d="M17.963 28.1726C12.4184 28.1726 6.58599 27.8527 6.61436 27.1886C6.61436 26.322 12.3171 26.2936 17.8212 26.2936C23.3253 26.2936 29.413 26.2734 29.4373 27.1886C29.4616 28.1038 23.6535 28.1888 17.963 28.1726Z" fill="#E8E8E8"/>
</g>
<g style="mix-blend-mode:multiply" opacity="0.29">
<path d="M17.9427 28.1646C12.467 28.1646 6.59404 27.8487 6.61431 27.1886C6.61431 26.3261 12.3575 26.2937 17.7927 26.2937C23.2279 26.2937 29.3846 26.2653 29.4089 27.1846C29.4332 28.1039 23.5643 28.1849 17.9427 28.1646Z" fill="#E6E6E6"/>
</g>
<g style="mix-blend-mode:multiply" opacity="0.31">
<path d="M17.9016 28.1615C12.4907 28.1615 6.59346 27.8456 6.60157 27.1855C6.60157 26.331 12.3894 26.2986 17.7516 26.2986C23.1139 26.2986 29.3354 26.2743 29.3597 27.1815C29.384 28.0886 23.4746 28.1777 17.9016 28.1615Z" fill="#E5E5E5"/>
</g>
<g style="mix-blend-mode:multiply" opacity="0.33">
<path d="M17.87 28.1534C12.528 28.1534 6.59835 27.8416 6.60645 27.1815C6.60645 26.3351 12.4348 26.2986 17.7281 26.2986C23.0215 26.2986 29.2916 26.2744 29.324 27.1774C29.3564 28.0805 23.3862 28.1736 17.87 28.1534Z" fill="#E3E3E3"/>
</g>
<g style="mix-blend-mode:multiply" opacity="0.35">
<path d="M17.8374 28.1485C12.5684 28.1485 6.60225 27.8367 6.61036 27.1806C6.61036 26.3383 12.4833 26.3019 17.7037 26.3019C22.924 26.3019 29.2631 26.2735 29.2914 27.1766C29.3198 28.0796 23.2969 28.1687 17.8374 28.1485Z" fill="#E1E1E1"/>
</g>
<g style="mix-blend-mode:multiply" opacity="0.37">
<path d="M17.8049 28.1403C12.6007 28.1403 6.60212 27.8325 6.61428 27.1765C6.61428 26.3423 12.5277 26.3018 17.6792 26.3018C22.8307 26.3018 29.2224 26.3018 29.2467 27.1724C29.271 28.0431 23.2117 28.1605 17.8049 28.1403Z" fill="#E0E0E0"/>
</g>
<g style="mix-blend-mode:multiply" opacity="0.39">
<path d="M17.7724 28.1325C12.6372 28.1325 6.60616 27.8288 6.61427 27.1728C6.61427 26.3628 12.5723 26.3062 17.6549 26.3062C22.7375 26.3062 29.1859 26.3062 29.2062 27.1687C29.2265 28.0313 23.1185 28.1568 17.7724 28.1325Z" fill="#DEDEDE"/>
</g>
<g style="mix-blend-mode:multiply" opacity="0.41">
<path d="M17.7399 28.1285C12.6735 28.1285 6.61007 27.8248 6.61817 27.1728C6.61817 26.3628 12.6167 26.3062 17.6264 26.3062C22.636 26.3062 29.1493 26.3062 29.1696 27.1647C29.1898 28.0232 23.0291 28.1487 17.7399 28.1285Z" fill="#DCDCDC"/>
</g>
<g style="mix-blend-mode:multiply" opacity="0.43">
<path d="M17.7123 28.1204C12.7108 28.1204 6.61495 27.8207 6.62305 27.1687C6.62305 26.3588 12.6662 26.3102 17.6029 26.3102C22.5395 26.3102 29.1096 26.3102 29.1299 27.1647C29.1501 28.0191 22.9408 28.1447 17.7123 28.1204Z" fill="#DBDBDB"/>
</g>
<g style="mix-blend-mode:multiply" opacity="0.45">
<path d="M17.6797 28.1123C12.7471 28.1123 6.61885 27.8166 6.62696 27.1687C6.62696 26.3588 12.7066 26.3102 17.5703 26.3102C22.434 26.3102 29.0649 26.3102 29.0851 27.1606C29.1054 28.011 22.8515 28.1406 17.6797 28.1123Z" fill="#D9D9D9"/>
</g>
<g style="mix-blend-mode:multiply" opacity="0.47">
<path d="M17.6472 28.1082C12.7835 28.1082 6.62276 27.8126 6.63087 27.1647C6.63087 26.3547 12.7551 26.3102 17.5742 26.3102C22.3933 26.3102 29.0566 26.3102 29.0728 27.1566C29.089 28.0029 22.7622 28.1325 17.6472 28.1082Z" fill="#D7D7D7"/>
</g>
<g style="mix-blend-mode:multiply" opacity="0.49">
<path d="M17.6147 28.1C12.8199 28.1 6.62681 27.8125 6.63086 27.1605C6.63086 26.3505 12.7997 26.3141 17.5256 26.3141C22.2515 26.3141 28.9958 26.3141 29.0161 27.1564C29.0363 27.9987 22.673 28.1283 17.6147 28.1Z" fill="#D6D6D6"/>
</g>
<g style="mix-blend-mode:multiply" opacity="0.51">
<path d="M17.5815 28.0919C12.8556 28.0919 6.63818 27.8084 6.63818 27.1605C6.63818 26.3505 12.8516 26.3141 17.5045 26.3141C22.1575 26.3141 28.9626 26.3141 28.9788 27.1524C28.995 27.9906 22.583 28.1243 17.5815 28.0919Z" fill="#D4D4D4"/>
</g>
<g style="mix-blend-mode:multiply" opacity="0.53">
<path d="M17.538 28.0878C12.877 28.0878 6.61495 27.8043 6.62305 27.1564C6.62305 26.3748 12.877 26.3181 17.461 26.3181C22.0451 26.3181 28.9069 26.3181 28.9232 27.128C28.9394 27.938 22.495 28.1162 17.538 28.0878Z" fill="#D2D2D2"/>
</g>
<g style="mix-blend-mode:multiply" opacity="0.55">
<path d="M17.5372 28.0797C12.945 28.0797 6.65059 27.8003 6.6587 27.1523C6.6587 26.3789 12.9531 26.3181 17.4683 26.3181C21.9834 26.3181 28.898 26.3181 28.9142 27.128C28.9304 27.938 22.4009 28.1121 17.5372 28.0797Z" fill="#D1D1D1"/>
</g>
<g style="mix-blend-mode:multiply" opacity="0.57">
<path d="M17.4882 28.0716C12.9649 28.0716 6.63804 27.7962 6.64209 27.1523C6.64209 26.3829 12.9811 26.3424 17.4274 26.3424C21.8736 26.3424 28.8449 26.3424 28.8611 27.1523C28.8773 27.9623 22.3154 28.108 17.4882 28.0716Z" fill="#CFCFCF"/>
</g>
<g style="mix-blend-mode:multiply" opacity="0.59">
<path d="M17.4566 28.0678C12.9982 28.0678 6.64292 27.7924 6.64697 27.1485C6.64697 26.3872 13.0306 26.3386 17.3998 26.3386C21.7691 26.3386 28.8093 26.3629 28.8214 27.1485C28.8336 27.9342 22.2271 28.1002 17.4566 28.0678Z" fill="#CDCDCD"/>
</g>
<g style="mix-blend-mode:multiply" opacity="0.61">
<path d="M17.424 28.0597C13.0386 28.0597 6.64683 27.7884 6.65088 27.1445C6.65088 26.3913 13.075 26.3346 17.3754 26.3346C21.6757 26.3346 28.7686 26.3589 28.7848 27.1445C28.801 27.9302 22.1377 28.0962 17.424 28.0597Z" fill="#CCCCCC"/>
</g>
<g style="mix-blend-mode:multiply" opacity="0.63">
<path d="M17.3955 28.0557C13.0749 28.0557 6.64669 27.7844 6.65479 27.1445C6.65479 26.3953 13.1397 26.3346 17.3509 26.3346C21.5621 26.3346 28.732 26.367 28.7441 27.1445C28.7563 27.9221 22.0484 28.0921 17.3955 28.0557Z" fill="#CACACA"/>
</g>
<g style="mix-blend-mode:multiply" opacity="0.65">
<path d="M17.3631 28.0475C13.1073 28.0475 6.65073 27.7802 6.65479 27.1404C6.65479 26.3993 13.164 26.3304 17.3266 26.3304C21.4891 26.3304 28.6955 26.3628 28.7076 27.1404C28.7198 27.9179 21.9593 28.0839 17.3631 28.0475Z" fill="#C9C9C9"/>
</g>
<g style="mix-blend-mode:multiply" opacity="0.67">
<path d="M17.3305 28.039C13.1436 28.039 6.65464 27.7758 6.65869 27.136C6.65869 26.407 13.2125 26.326 17.2981 26.326C21.3836 26.326 28.6467 26.3625 28.667 27.136C28.6872 27.9095 21.8699 28.0795 17.3305 28.039Z" fill="#C7C7C7"/>
</g>
<g style="mix-blend-mode:multiply" opacity="0.69">
<path d="M17.2979 28.035C13.18 28.035 6.65855 27.7718 6.6626 27.136C6.6626 26.4111 13.257 26.326 17.2736 26.326C21.2902 26.326 28.6222 26.3706 28.6222 27.136C28.6222 27.9014 21.7806 28.0714 17.2979 28.035Z" fill="#C5C5C5"/>
</g>
<g style="mix-blend-mode:multiply" opacity="0.71">
<path d="M17.2663 28.0272C13.2132 28.0272 6.66343 27.768 6.66748 27.1322C6.66748 26.4154 13.3024 26.3223 17.2501 26.3223C21.1978 26.3223 28.5987 26.3668 28.5987 27.1119C28.5987 27.8571 21.6923 28.0677 17.2663 28.0272Z" fill="#C4C4C4"/>
</g>
<g style="mix-blend-mode:multiply" opacity="0.73">
<path d="M17.2378 28.019C13.2536 28.019 6.66734 27.7638 6.67139 27.128C6.67139 26.4194 13.3468 26.3181 17.2094 26.3181C21.072 26.3181 28.5297 26.3667 28.5581 27.1037C28.5864 27.8408 21.5908 28.0635 17.2378 28.019Z" fill="#C2C2C2"/>
</g>
<g style="mix-blend-mode:multiply" opacity="0.75">
<path d="M17.2055 28.0149C13.2902 28.0149 6.66748 27.7598 6.66748 27.128C6.66748 26.4234 13.3875 26.3181 17.2055 26.3181C21.0235 26.3181 28.5096 26.3708 28.5177 27.0956C28.5258 27.8205 21.5139 28.0554 17.2055 28.0149Z" fill="#C0C0C0"/>
</g>
<g style="mix-blend-mode:multiply" opacity="0.76">
<path d="M17.1728 28.0071C13.3264 28.0071 6.67124 27.756 6.67529 27.1242C6.67529 26.4277 13.4399 26.3386 17.1728 26.3386C20.9057 26.3386 28.4809 26.3953 28.4809 27.1162C28.4809 27.837 21.4245 28.0516 17.1728 28.0071Z" fill="#BFBFBF"/>
</g>
<g style="mix-blend-mode:multiply" opacity="0.78">
<path d="M17.1324 27.9987C13.3549 27.9987 6.66734 27.7517 6.67139 27.1199C6.67544 26.4882 13.4846 26.3424 17.1324 26.3424C20.7802 26.3424 28.4162 26.4032 28.4203 27.1118C28.4243 27.8205 21.3355 28.0473 17.1324 27.9987Z" fill="#BDBDBD"/>
</g>
<g style="mix-blend-mode:multiply" opacity="0.8">
<path d="M17.1072 27.9947C13.3986 27.9947 6.67857 27.7476 6.68262 27.1199C6.68667 26.4922 13.5283 26.3424 17.1315 26.3424C20.7347 26.3424 28.3991 26.4072 28.4072 27.1078C28.4153 27.8084 21.2454 28.0392 17.1072 27.9947Z" fill="#BBBBBB"/>
</g>
<g style="mix-blend-mode:multiply" opacity="0.82">
<path d="M17.0747 27.9869C13.427 27.9869 6.68262 27.7439 6.68262 27.1162C6.68262 26.4885 13.5729 26.3468 17.0991 26.3468C20.6252 26.3468 28.3545 26.4116 28.3585 27.1041C28.3626 27.7966 21.1562 28.0355 17.0747 27.9869Z" fill="#BABABA"/>
</g>
<g style="mix-blend-mode:multiply" opacity="0.84">
<path d="M17.0462 27.9829C13.4714 27.9829 6.68652 27.7399 6.68652 27.1122C6.68652 26.4845 13.6214 26.3468 17.0705 26.3468C20.5197 26.3468 28.3179 26.4197 28.3219 27.1041C28.326 27.7885 21.0669 28.0314 17.0462 27.9829Z" fill="#B8B8B8"/>
</g>
<g style="mix-blend-mode:multiply" opacity="0.86">
<path d="M17.0151 27.9748C13.5092 27.9748 6.68784 27.7358 6.6919 27.1122C6.69595 26.4885 13.6673 26.3468 17.0475 26.3468C20.4278 26.3468 28.2787 26.4237 28.2827 27.0838C28.2868 27.7439 20.979 28.0233 17.0151 27.9748Z" fill="#B6B6B6"/>
</g>
<g style="mix-blend-mode:multiply" opacity="0.88">
<path d="M16.9825 27.9666C13.5455 27.9666 6.69175 27.7318 6.6958 27.1081C6.69986 26.4845 13.7117 26.3508 17.0231 26.3508C20.3344 26.3508 28.242 26.4278 28.2461 27.096C28.2501 27.7642 20.8897 28.0193 16.9825 27.9666Z" fill="#B5B5B5"/>
</g>
<g style="mix-blend-mode:multiply" opacity="0.9">
<path d="M16.9501 27.9626C13.582 27.9626 6.6958 27.7277 6.6958 27.1041C6.6958 26.4804 13.7563 26.3508 16.9988 26.3508C20.2412 26.3508 28.2055 26.4359 28.2096 27.0838C28.2137 27.7318 20.8006 28.0152 16.9501 27.9626Z" fill="#B3B3B3"/>
</g>
<g style="mix-blend-mode:multiply" opacity="0.92">
<path d="M16.9171 27.954C13.6178 27.954 6.69922 27.7231 6.69922 27.1036C6.69922 26.484 13.8043 26.3544 16.9738 26.3544C20.1433 26.3544 28.1644 26.4394 28.1684 27.0914C28.1725 27.7434 20.7108 28.0066 16.9171 27.954Z" fill="#B1B1B1"/>
</g>
<g style="mix-blend-mode:multiply" opacity="0.94">
<path d="M16.8885 27.9459C13.6461 27.9459 6.70312 27.7231 6.70312 27.0995C6.70312 26.4759 13.8487 26.3544 16.9453 26.3544C20.0418 26.3544 28.1278 26.4435 28.1318 27.0874C28.1359 27.7312 20.6214 28.0026 16.8885 27.9459Z" fill="#B0B0B0"/>
</g>
<g style="mix-blend-mode:multiply" opacity="0.96">
<path d="M16.8564 27.9419C13.6909 27.9419 6.72363 27.7192 6.72363 27.0956C6.72363 26.4719 13.8895 26.3585 16.9212 26.3585C19.9529 26.3585 28.0753 26.4517 28.0753 27.0834C28.0753 27.7151 20.5325 27.9946 16.8564 27.9419Z" fill="#AEAEAE"/>
</g>
<g style="mix-blend-mode:multiply" opacity="0.98">
<path d="M16.8246 27.9338C13.7281 27.9338 6.69189 27.7151 6.69189 27.0956C6.69189 26.476 13.9186 26.3585 16.8773 26.3585C19.8361 26.3585 28.0517 26.4557 28.076 27.0834C28.1003 27.7111 20.444 27.9905 16.8246 27.9338Z" fill="#ADADAD"/>
</g>
<g style="mix-blend-mode:multiply">
<path d="M16.7919 27.9263C13.7643 27.9263 6.71191 27.7117 6.71191 27.0921C6.71191 26.4725 14.0075 26.3632 16.873 26.3632C19.7385 26.3632 28.015 26.4603 28.015 27.0799C28.015 27.6995 20.3749 27.9871 16.7919 27.9263Z" fill="#ABABAB"/>
</g>
<path d="M28.075 26.8892C28.0304 26.8609 27.9575 26.9216 27.8926 26.9905C27.2644 26.5896 22.7736 26.2737 17.2979 26.2737C11.8221 26.2737 7.31106 26.5815 6.7112 26.9824C6.6423 26.9135 6.56934 26.8528 6.52881 26.8811C6.5432 26.9733 6.58902 27.0577 6.65851 27.1201C6.99897 27.5493 11.6276 27.8935 17.2979 27.8935C22.9681 27.8935 27.6049 27.5615 27.9332 27.1403C28.0068 27.0744 28.0566 26.9862 28.075 26.8892Z" fill="url(#paint3_linear)"/>
<path d="M28.0757 25.0956V26.8896C28.0664 26.9202 28.0497 26.948 28.0271 26.9706C27.5123 27.416 22.908 27.7805 17.3067 27.7805C11.3567 27.7805 6.5376 27.3755 6.5376 26.9058V25.0956H28.0757Z" fill="url(#paint4_linear)"/>
<path d="M28.0758 25.0589C28.0438 24.9843 27.9953 24.9178 27.9339 24.8645C27.9412 24.8952 27.9412 24.9271 27.9339 24.9577C27.0463 24.5973 22.6365 24.3219 17.331 24.3219C12.0256 24.3219 7.60363 24.5973 6.72411 24.9577C6.71857 24.9269 6.71857 24.8953 6.72411 24.8645C6.6617 24.9178 6.61186 24.9842 6.5782 25.0589C6.5768 25.0697 6.5768 25.0806 6.5782 25.0913C6.5782 25.5206 11.3973 25.8648 17.3473 25.8648C23.2972 25.8648 28.0758 25.5246 28.0758 25.0954C28.0793 25.0835 28.0793 25.0708 28.0758 25.0589Z" fill="#FDFDFD"/>
<path d="M27.9534 24.9373C27.9534 25.3422 23.1829 25.6986 17.2978 25.6986C11.4127 25.6986 6.63818 25.3584 6.63818 24.9373C6.63818 24.5161 11.4127 24.1719 17.2978 24.1719C23.1829 24.1719 27.9534 24.512 27.9534 24.9373Z" fill="url(#paint5_linear)"/>
<g style="mix-blend-mode:multiply" opacity="0.02">
<path d="M18.1368 25.6952C13.1555 25.6952 8.9322 25.4603 8.94436 24.9501C8.96057 24.2495 12.9367 24.2495 17.9179 24.2495C22.8992 24.2495 27.6453 24.1847 27.694 24.9622C27.7426 25.7398 23.1302 25.6952 18.1368 25.6952Z" fill="#FDFDFD"/>
</g>
<g style="mix-blend-mode:multiply" opacity="0.04">
<path d="M18.1124 25.691C13.1798 25.691 8.93624 25.4561 8.94435 24.9499C8.96056 24.2493 12.9731 24.2493 17.9017 24.2493C22.8302 24.2493 27.6291 24.1885 27.6494 24.962C27.6696 25.7355 23.0613 25.695 18.1124 25.691Z" fill="#FCFCFC"/>
</g>
<g style="mix-blend-mode:multiply" opacity="0.06">
<path d="M18.088 25.6863C13.2243 25.6863 8.93611 25.4514 8.94827 24.9452C8.94827 24.2406 13.0014 24.2365 17.8651 24.2365C22.7288 24.2365 27.5682 24.1798 27.5925 24.9452C27.6168 25.7106 22.9882 25.6904 18.088 25.6863Z" fill="#FAFAFA"/>
</g>
<g style="mix-blend-mode:multiply" opacity="0.08">
<path d="M18.0645 25.6827C13.2373 25.6827 8.94099 25.4519 8.95315 24.9457C8.96531 24.2491 13.0427 24.2491 17.8618 24.2491C22.681 24.2491 27.5406 24.1924 27.5649 24.9538C27.5893 25.7151 22.9201 25.6867 18.0645 25.6827Z" fill="#F8F8F8"/>
</g>
<g style="mix-blend-mode:multiply" opacity="0.1">
<path d="M18.0361 25.6785C13.2656 25.6785 8.94503 25.4477 8.95314 24.9414C8.96935 24.249 13.0792 24.249 17.8416 24.249C22.6039 24.249 27.5001 24.1963 27.5244 24.9495C27.5487 25.7028 22.8512 25.6825 18.0361 25.6785Z" fill="#F7F7F7"/>
</g>
<g style="mix-blend-mode:multiply" opacity="0.12">
<path d="M18.0117 25.6749C13.2939 25.6749 8.9449 25.4441 8.95706 24.9419C8.96922 24.2494 13.1155 24.2494 17.8212 24.2494C22.5268 24.2494 27.4594 24.2049 27.4837 24.95C27.508 25.6951 22.7821 25.6789 18.0117 25.6749Z" fill="#F5F5F5"/>
</g>
<g style="mix-blend-mode:multiply" opacity="0.14">
<path d="M17.9873 25.6708C13.3182 25.6708 8.94894 25.4441 8.95704 24.9379C8.97325 24.2494 13.152 24.2494 17.8009 24.2494C22.4498 24.2494 27.4148 24.2049 27.4391 24.9419C27.4635 25.6789 22.7132 25.6749 17.9873 25.6708Z" fill="#F3F3F3"/>
</g>
<g style="mix-blend-mode:multiply" opacity="0.16">
<path d="M17.9629 25.6667C13.3464 25.6667 8.95284 25.4399 8.96095 24.9377C8.97311 24.2493 13.1843 24.2493 17.7845 24.2493C22.3848 24.2493 27.3741 24.2088 27.3985 24.9418C27.4228 25.6748 22.6401 25.6707 17.9629 25.6667Z" fill="#F2F2F2"/>
</g>
<g style="mix-blend-mode:multiply" opacity="0.18">
<path d="M17.9423 25.6622C13.3785 25.6622 8.95662 25.4354 8.96878 24.9333C8.96878 24.261 13.2245 24.2448 17.768 24.2448C22.3115 24.2448 27.3374 24.2084 27.3576 24.9333C27.3779 25.6581 22.5709 25.6703 17.9423 25.6622Z" fill="#F0F0F0"/>
</g>
<g style="mix-blend-mode:multiply" opacity="0.2">
<path d="M17.91 25.659C13.403 25.659 8.95675 25.4322 8.96485 24.9341C8.97701 24.2497 13.2571 24.2497 17.7438 24.2497C22.2306 24.2497 27.2929 24.2133 27.3132 24.93C27.3335 25.6468 22.5022 25.6671 17.91 25.659Z" fill="#EEEEEE"/>
</g>
<g style="mix-blend-mode:multiply" opacity="0.22">
<path d="M17.8855 25.6508C13.4271 25.6508 8.96875 25.4321 8.96875 24.93C8.98091 24.2496 13.2893 24.2496 17.7234 24.2496C22.1575 24.2496 27.2644 24.2172 27.2644 24.93C27.2644 25.6427 22.4331 25.6629 17.8855 25.6508Z" fill="#EDEDED"/>
</g>
<g style="mix-blend-mode:multiply" opacity="0.24">
<path d="M17.8613 25.6467C13.4556 25.6467 8.94453 25.428 8.96885 24.9299C8.96885 24.2698 13.3259 24.2495 17.7033 24.2495C22.0806 24.2495 27.2078 24.2212 27.228 24.9258C27.2483 25.6305 22.3643 25.6588 17.8613 25.6467Z" fill="#EBEBEB"/>
</g>
<g style="mix-blend-mode:multiply" opacity="0.25">
<path d="M17.8363 25.6426C13.4833 25.6426 8.96407 25.4239 8.97218 24.9258C8.98434 24.2738 13.3617 24.2495 17.6823 24.2495C22.0029 24.2495 27.1665 24.2212 27.1868 24.9218C27.207 25.6224 22.2906 25.6548 17.8363 25.6426Z" fill="#EAEAEA"/>
</g>
<g style="mix-blend-mode:multiply" opacity="0.27">
<path d="M17.8133 25.6381C13.513 25.6381 8.96944 25.4235 8.97755 24.9254C8.97755 24.2775 13.3995 24.2532 17.6674 24.2532C21.9353 24.2532 27.1232 24.2491 27.1435 24.9214C27.1638 25.5936 22.2231 25.6503 17.8133 25.6381Z" fill="#E8E8E8"/>
</g>
<g style="mix-blend-mode:multiply" opacity="0.29">
<path d="M17.7849 25.6341C13.5413 25.6341 8.96944 25.4195 8.97755 24.9254C8.97755 24.2775 13.4359 24.2532 17.6471 24.2532C21.8583 24.2532 27.0827 24.2491 27.103 24.9214C27.1232 25.5936 22.1541 25.6462 17.7849 25.6341Z" fill="#E6E6E6"/>
</g>
<g style="mix-blend-mode:multiply" opacity="0.31">
<path d="M17.7604 25.6303C13.5696 25.6303 8.97335 25.4157 8.98146 24.9216C8.98956 24.2818 13.4844 24.2494 17.6267 24.2494C21.769 24.2494 27.042 24.2494 27.0582 24.9095C27.0744 25.5696 22.0851 25.6425 17.7604 25.6303Z" fill="#E5E5E5"/>
</g>
<g style="mix-blend-mode:multiply" opacity="0.33">
<path d="M17.7361 25.6259C13.5939 25.6259 8.97739 25.4112 8.98145 24.9212C8.98145 24.2854 13.5047 24.2571 17.6064 24.2571C21.7082 24.2571 27.0015 24.2571 27.0177 24.9172C27.0339 25.5773 22.0162 25.6421 17.7361 25.6259Z" fill="#E3E3E3"/>
</g>
<g style="mix-blend-mode:multiply" opacity="0.35">
<path d="M17.7117 25.6222C13.6221 25.6222 8.97726 25.4116 8.98536 24.9176C8.99347 24.2899 13.537 24.2494 17.586 24.2494C21.6351 24.2494 26.9568 24.2494 26.977 24.9054C26.9973 25.5615 21.9431 25.6384 17.7117 25.6222Z" fill="#E1E1E1"/>
</g>
<g style="mix-blend-mode:multiply" opacity="0.37">
<path d="M17.6867 25.6182C13.6336 25.6182 8.98067 25.4076 8.98878 24.9176C8.99689 24.2899 13.5728 24.2494 17.5692 24.2494C21.5655 24.2494 26.9156 24.2494 26.9318 24.9014C26.948 25.5534 21.8736 25.6344 17.6867 25.6182Z" fill="#E0E0E0"/>
</g>
<g style="mix-blend-mode:multiply" opacity="0.39">
<path d="M17.6583 25.6141C13.6782 25.6141 8.98472 25.4035 8.98877 24.9135C9.00093 24.2939 13.6093 24.2494 17.5367 24.2494C21.4642 24.2494 26.8588 24.2494 26.8588 24.8973C26.8588 25.5453 21.8046 25.6303 17.6583 25.6141Z" fill="#DEDEDE"/>
</g>
<g style="mix-blend-mode:multiply" opacity="0.41">
<path d="M17.6339 25.6101C13.7064 25.6101 8.98458 25.4035 8.99269 24.9135C9.00079 24.298 13.6456 24.2494 17.5366 24.2494C21.4276 24.2494 26.8587 24.2494 26.8587 24.8973C26.8587 25.5453 21.7356 25.6263 17.6339 25.6101Z" fill="#DCDCDC"/>
</g>
<g style="mix-blend-mode:multiply" opacity="0.43">
<path d="M17.6095 25.6051C13.7307 25.6051 8.98863 25.3985 8.99268 24.9085C8.99268 24.3011 13.6781 24.2646 17.5042 24.2646C21.3303 24.2646 26.7857 24.2646 26.802 24.9045C26.8182 25.5443 21.6667 25.6213 17.6095 25.6051Z" fill="#DBDBDB"/>
</g>
<g style="mix-blend-mode:multiply" opacity="0.45">
<path d="M17.5866 25.601C13.7604 25.601 8.98995 25.3945 8.99806 24.9085C8.99806 24.3011 13.7159 24.2646 17.5095 24.2646C21.3032 24.2646 26.7709 24.2646 26.7871 24.9004C26.8033 25.5362 21.591 25.6172 17.5866 25.601Z" fill="#D9D9D9"/>
</g>
<g style="mix-blend-mode:multiply" opacity="0.47">
<path d="M17.5616 25.5939C13.7882 25.5939 8.99337 25.3914 9.00148 24.9054C9.02579 24.3061 13.7517 24.2494 17.4684 24.2494C21.1851 24.2494 26.7094 24.2494 26.7216 24.8852C26.7337 25.521 21.5255 25.6182 17.5616 25.5939Z" fill="#D7D7D7"/>
</g>
<g style="mix-blend-mode:multiply" opacity="0.49">
<path d="M17.5375 25.5895C13.8208 25.5895 9.00165 25.391 9.02597 24.9051C9.02597 24.3098 13.8086 24.2693 17.4767 24.2693C21.1447 24.2693 26.6893 24.2693 26.7055 24.897C26.7218 25.5247 21.4568 25.6138 17.5375 25.5895Z" fill="#D6D6D6"/>
</g>
<g style="mix-blend-mode:multiply" opacity="0.51">
<path d="M17.5095 25.5854C13.8618 25.5854 8.99805 25.387 8.99805 24.901C8.99805 24.3138 13.8131 24.2693 17.4244 24.2693C21.0357 24.2693 26.6168 24.2693 26.629 24.897C26.6411 25.5247 21.3883 25.6097 17.5095 25.5854Z" fill="#D4D4D4"/>
</g>
<g style="mix-blend-mode:multiply" opacity="0.53">
<path d="M17.4848 25.5814C13.8897 25.5814 9.00165 25.3829 9.02597 24.901C9.02597 24.3138 13.8897 24.2693 17.4321 24.2693C20.9745 24.2693 26.6042 24.2693 26.6164 24.8929C26.6285 25.5166 21.319 25.6057 17.4848 25.5814Z" fill="#D2D2D2"/>
</g>
<g style="mix-blend-mode:multiply" opacity="0.55">
<path d="M17.4604 25.5777C13.8896 25.5777 9.02588 25.3833 9.02588 24.8973C9.02588 24.3182 13.8896 24.2737 17.4077 24.2737C20.9258 24.2737 26.5595 24.2737 26.5717 24.8933C26.5839 25.5129 21.2459 25.602 17.4604 25.5777Z" fill="#D1D1D1"/>
</g>
<g style="mix-blend-mode:multiply" opacity="0.57">
<path d="M17.4355 25.5736C13.9255 25.5736 9.00509 25.3792 9.01319 24.8973C9.01319 24.3223 13.9255 24.2737 17.3707 24.2737C20.8158 24.2737 26.4982 24.2737 26.5104 24.8892C26.5225 25.5048 21.1846 25.5979 17.4355 25.5736Z" fill="#CFCFCF"/>
</g>
<g style="mix-blend-mode:multiply" opacity="0.59">
<path d="M17.4071 25.5693C13.9539 25.5693 9.00913 25.3749 9.01319 24.893C9.01319 24.3261 13.962 24.2775 17.3504 24.2775C20.7388 24.2775 26.4536 24.2937 26.4536 24.889C26.4536 25.4843 21.1076 25.5936 17.4071 25.5693Z" fill="#CDCDCD"/>
</g>
<g style="mix-blend-mode:multiply" opacity="0.61">
<path d="M17.3836 25.5652C13.9831 25.5652 9.01402 25.3709 9.01807 24.893C9.01807 24.3261 13.9993 24.2775 17.335 24.2775C20.6707 24.2775 26.418 24.2977 26.4261 24.8849C26.4342 25.4721 21.0395 25.5895 17.3836 25.5652Z" fill="#CCCCCC"/>
</g>
<g style="mix-blend-mode:multiply" opacity="0.63">
<path d="M17.3593 25.5612C14.0074 25.5612 9.01402 25.3709 9.01807 24.889C9.01807 24.3301 14.0317 24.2775 17.3147 24.2775C20.5977 24.2775 26.3734 24.3018 26.3856 24.8849C26.3977 25.4681 20.9706 25.5895 17.3593 25.5612Z" fill="#CACACA"/>
</g>
<g style="mix-blend-mode:multiply" opacity="0.65">
<path d="M17.3349 25.5563C14.0356 25.5563 9.01792 25.3659 9.02198 24.8881C9.02198 24.3333 14.0681 24.2806 17.2943 24.2806C20.5206 24.2806 26.3327 24.3049 26.3449 24.88C26.357 25.455 20.8975 25.5846 17.3349 25.5563Z" fill="#C9C9C9"/>
</g>
<g style="mix-blend-mode:multiply" opacity="0.67">
<path d="M17.3104 25.5522C14.0679 25.5522 9.02183 25.3619 9.02588 24.884C9.02588 24.3373 14.1044 24.2806 17.2739 24.2806C20.4434 24.2806 26.292 24.309 26.3001 24.88C26.3083 25.451 20.8285 25.5806 17.3104 25.5522Z" fill="#C7C7C7"/>
</g>
<g style="mix-blend-mode:multiply" opacity="0.69">
<path d="M17.282 25.5482C14.0922 25.5482 9.02588 25.3619 9.02588 24.884C9.02588 24.3373 14.1409 24.2806 17.2537 24.2806C20.3664 24.2806 26.2515 24.313 26.2596 24.8759C26.2677 25.4388 20.7798 25.5765 17.282 25.5482Z" fill="#C5C5C5"/>
</g>
<g style="mix-blend-mode:multiply" opacity="0.71">
<path d="M17.2576 25.5451C14.1164 25.5451 9.02573 25.3588 9.02979 24.8809C9.02979 24.3423 14.1732 24.2856 17.2373 24.2856C20.3014 24.2856 26.2068 24.318 26.2149 24.8728C26.223 25.4276 20.6905 25.5734 17.2576 25.5451Z" fill="#C4C4C4"/>
</g>
<g style="mix-blend-mode:multiply" opacity="0.73">
<path d="M17.2332 25.537C14.1448 25.537 9.02979 25.3547 9.02979 24.8809C9.02979 24.3464 14.2096 24.2856 17.217 24.2856C20.2244 24.2856 26.1662 24.3221 26.1744 24.8728C26.1825 25.4236 20.6216 25.5694 17.2332 25.537Z" fill="#C2C2C2"/>
</g>
<g style="mix-blend-mode:multiply" opacity="0.75">
<path d="M17.2091 25.5329C14.1733 25.5329 9.02588 25.3507 9.02588 24.8769C9.02588 24.4031 14.2382 24.2856 17.1888 24.2856C20.1395 24.2856 26.1056 24.3261 26.1056 24.8688C26.1056 25.4114 20.5488 25.5653 17.2091 25.5329Z" fill="#C0C0C0"/>
</g>
<g style="mix-blend-mode:multiply" opacity="0.76">
<path d="M17.1804 25.5287C14.2014 25.5287 9.03369 25.3506 9.03369 24.8767C9.03369 24.4029 14.2946 24.2896 17.1763 24.2896C20.0581 24.2896 26.0931 24.33 26.0931 24.8686C26.0931 25.4072 20.4796 25.5611 17.1804 25.5287Z" fill="#BFBFBF"/>
</g>
<g style="mix-blend-mode:multiply" opacity="0.78">
<path d="M17.156 25.5247C14.2297 25.5247 9.0498 25.3465 9.0498 24.8727C9.0498 24.3989 14.3188 24.2896 17.156 24.2896C19.9931 24.2896 26.0485 24.3341 26.0485 24.8646C26.0485 25.3951 20.4106 25.5611 17.156 25.5247Z" fill="#BDBDBD"/>
</g>
<g style="mix-blend-mode:multiply" opacity="0.8">
<path d="M17.1321 25.5206C14.2544 25.5206 9.02588 25.3425 9.02588 24.8727C9.02588 24.4029 14.3354 24.2896 17.1321 24.2896C19.9287 24.2896 25.9962 24.3381 26.0002 24.8646C26.0043 25.3911 20.3421 25.5571 17.1321 25.5206Z" fill="#BBBBBB"/>
</g>
<g style="mix-blend-mode:multiply" opacity="0.82">
<path d="M17.1081 25.5162C14.271 25.5162 9.04248 25.3421 9.04248 24.8683C9.04248 24.3945 14.3885 24.2932 17.1324 24.2932C19.8764 24.2932 25.9722 24.3418 25.9763 24.8602C25.9803 25.3785 20.2736 25.5526 17.1081 25.5162Z" fill="#BABABA"/>
</g>
<g style="mix-blend-mode:multiply" opacity="0.84">
<path d="M17.0837 25.5122C14.3114 25.5122 9.04234 25.338 9.04639 24.8683C9.05044 24.3985 14.4208 24.2932 17.0999 24.2932C19.779 24.2932 25.9153 24.3459 25.9194 24.8602C25.9235 25.3745 20.2005 25.5486 17.0837 25.5122Z" fill="#B8B8B8"/>
</g>
<g style="mix-blend-mode:multiply" opacity="0.86">
<path d="M17.0553 25.5081C14.3397 25.5081 9.04639 25.334 9.04639 24.8642C9.04639 24.3945 14.4573 24.2932 17.0796 24.2932C19.702 24.2932 25.8748 24.3499 25.8789 24.8561C25.8829 25.3623 20.1316 25.5445 17.0553 25.5081Z" fill="#B6B6B6"/>
</g>
<g style="mix-blend-mode:multiply" opacity="0.88">
<path d="M17.0303 25.5042C14.3675 25.5042 9.0498 25.33 9.0498 24.8643C9.0498 24.3986 14.4931 24.2974 17.0587 24.2974C19.6243 24.2974 25.8337 24.3541 25.8377 24.8562C25.8418 25.3584 20.062 25.5406 17.0303 25.5042Z" fill="#B5B5B5"/>
</g>
<g style="mix-blend-mode:multiply" opacity="0.9">
<path d="M17.0059 25.5001C14.3916 25.5001 9.04966 25.33 9.05371 24.8603C9.05777 24.3905 14.5254 24.2974 17.0383 24.2974C19.5512 24.2974 25.793 24.3581 25.793 24.8522C25.793 25.3462 19.993 25.5365 17.0059 25.5001Z" fill="#B3B3B3"/>
</g>
<g style="mix-blend-mode:multiply" opacity="0.92">
<path d="M16.9816 25.4961C14.42 25.4961 9.05371 25.326 9.05371 24.8603C9.05371 24.3946 14.5619 24.2974 17.018 24.2974C19.4742 24.2974 25.7484 24.3622 25.7524 24.8522C25.7565 25.3422 19.9241 25.5366 16.9816 25.4961Z" fill="#B1B1B1"/>
</g>
<g style="mix-blend-mode:multiply" opacity="0.94">
<path d="M16.9571 25.492C14.4482 25.492 9.05762 25.3219 9.05762 24.8562C9.05762 24.3905 14.5982 24.3014 17.0017 24.3014C19.4052 24.3014 25.7077 24.3662 25.7077 24.8481C25.7077 25.33 19.851 25.5325 16.9571 25.492Z" fill="#B0B0B0"/>
</g>
<g style="mix-blend-mode:multiply" opacity="0.96">
<path d="M16.9287 25.4879C14.4969 25.4879 9.05762 25.3219 9.05762 24.8562C9.05762 24.3905 14.6347 24.3014 16.9814 24.3014C19.3281 24.3014 25.6672 24.3702 25.6672 24.844C25.6672 25.3179 19.7821 25.5284 16.9287 25.4879Z" fill="#AEAEAE"/>
</g>
<g style="mix-blend-mode:multiply" opacity="0.98">
<path d="M16.9057 25.4641C14.5063 25.4641 9.06299 25.3021 9.06299 24.8364C9.06299 24.3707 14.6684 24.2856 16.9625 24.2856C19.2565 24.2856 25.6442 24.3747 25.6442 24.8445C25.6442 25.3143 19.7145 25.5248 16.9057 25.4641Z" fill="#ADADAD"/>
</g>
<g style="mix-blend-mode:multiply">
<path d="M16.8808 25.4635C14.53 25.4635 9.06641 25.3015 9.06641 24.8398C9.06641 24.3782 14.7002 24.3053 16.9416 24.3053C19.1829 24.3053 25.5828 24.3782 25.5828 24.8398C25.5828 25.3015 19.645 25.5202 16.8808 25.4635Z" fill="#ABABAB"/>
</g>
<path d="M25.6428 24.6989C25.6104 24.6989 25.5537 24.7232 25.501 24.7758C25.0146 24.4762 21.5168 24.2494 17.2732 24.2494C13.0296 24.2494 9.52774 24.4802 9.06163 24.7799C9.00894 24.7272 8.95625 24.6827 8.92383 24.7029C8.93631 24.7712 8.97041 24.8337 9.0211 24.8811C9.27645 25.193 12.8715 25.444 17.2691 25.444C21.6667 25.444 25.2618 25.193 25.5172 24.8811C25.5805 24.8383 25.6254 24.7733 25.6428 24.6989Z" fill="url(#paint6_linear)"/>
<path d="M25.6431 23.0625V24.6824C25.6362 24.7054 25.6237 24.7263 25.6066 24.7431C25.2013 25.0752 21.6386 25.3344 17.2937 25.3344C12.6813 25.3344 8.94434 25.0387 8.94434 24.6783V23.0585L25.6431 23.0625Z" fill="url(#paint7_linear)"/>
<path d="M25.6152 23.0334C25.5896 22.9753 25.5508 22.924 25.5017 22.8836C25.5056 22.9077 25.5056 22.9324 25.5017 22.9565C24.8127 22.6852 21.3919 22.4786 17.278 22.4786C13.1641 22.4786 9.73923 22.6852 9.05426 22.9565C9.04871 22.9325 9.04871 22.9076 9.05426 22.8836C9.00646 22.9252 8.96782 22.9762 8.94077 23.0334C8.93901 23.0414 8.93901 23.0497 8.94077 23.0577C8.94077 23.3777 12.6818 23.6368 17.2942 23.6368C21.9066 23.6368 25.6436 23.3817 25.6436 23.0618C25.6379 23.0492 25.6278 23.0391 25.6152 23.0334Z" fill="#FDFDFD"/>
<path d="M17.2735 23.5115C21.8377 23.5115 25.5378 23.2559 25.5378 22.9405C25.5378 22.6251 21.8377 22.3695 17.2735 22.3695C12.7093 22.3695 9.00928 22.6251 9.00928 22.9405C9.00928 23.2559 12.7093 23.5115 17.2735 23.5115Z" fill="url(#paint8_linear)"/>
<path d="M23.8575 6.24805C25.0608 7.27693 25.9383 8.63349 26.3831 10.1522C26.8279 11.6709 26.8207 13.2862 26.3623 14.8009C25.4828 17.8745 22.3092 20.5554 19.2653 20.7903L19.1113 21.4342C23.6954 20.442 26.03 16.8662 26.5731 14.9548C27.0439 13.3986 27.0368 11.7371 26.5527 10.185C26.0686 8.63289 25.1297 7.26151 23.8575 6.24805Z" fill="#434E52"/>
<path d="M23.5934 20.381C22.9565 20.3752 22.332 20.5569 21.7979 20.9034C22.2545 21.3393 22.8298 21.6309 23.4515 21.7417C24.7607 21.8632 25.0282 21.2031 25.0282 21.2031C25.0282 21.2031 24.9025 20.5025 23.5934 20.381Z" fill="#434E52"/>
<path d="M20.9309 18.3644C20.8117 18.9819 20.8808 19.621 21.1295 20.1988C21.6385 19.8249 22.0239 19.3073 22.236 18.7126C22.5724 17.4734 21.9807 17.0928 21.9807 17.0928C21.9807 17.0928 21.2673 17.1252 20.9309 18.3644Z" fill="#434E52"/>
<path d="M25.1387 19.0368C24.5231 19.0857 23.936 19.317 23.4526 19.701C23.9362 20.0795 24.5219 20.3051 25.1347 20.3489C26.3992 20.3489 26.5897 19.6848 26.5897 19.6848C26.5897 19.6848 26.4033 19.0287 25.1387 19.0368Z" fill="#434E52"/>
<path d="M22.5806 17.3321C22.6036 17.9152 22.7981 18.4786 23.1399 18.9519C23.5275 18.5126 23.7771 17.9689 23.8573 17.3888C23.91 16.1739 23.2858 15.9592 23.2858 15.9592C23.2858 15.9592 22.6414 16.1212 22.5806 17.3321Z" fill="#434E52"/>
<path d="M26.4113 17.5016C25.7951 17.6261 25.2304 17.9322 24.79 18.3804C25.3247 18.701 25.9425 18.856 26.5653 18.8259C27.842 18.6639 27.9555 17.9754 27.9555 17.9754C27.9555 17.9754 27.688 17.3356 26.4113 17.5016Z" fill="#434E52"/>
<path d="M23.8574 16.0353C23.9732 16.5519 24.2398 17.0226 24.6234 17.3879C24.8909 16.9299 25.0152 16.4024 24.9801 15.8733C24.8301 14.7961 24.2627 14.707 24.2627 14.707C24.2627 14.707 23.7034 14.9581 23.8574 16.0353Z" fill="#434E52"/>
<path d="M27.0276 15.8173C26.5198 16.122 26.1136 16.5701 25.8604 17.1051C26.4391 17.2269 27.0409 17.1762 27.591 16.9593C28.6854 16.4167 28.5759 15.7444 28.5759 15.7444C28.5759 15.7444 28.122 15.2747 27.0276 15.8173Z" fill="#434E52"/>
<path d="M24.8016 14.6547C25.0024 15.1183 25.3368 15.5116 25.7622 15.7845C25.9296 15.3077 25.9521 14.792 25.8271 14.3024C25.4785 13.3143 24.9232 13.3426 24.9232 13.3426C24.9232 13.3426 24.4652 13.6706 24.8016 14.6547Z" fill="#434E52"/>
<path d="M27.5987 13.8615C27.1833 14.2823 26.9013 14.8162 26.7881 15.3963C27.373 15.3695 27.9369 15.1709 28.4093 14.8253C29.3334 14.0154 29.0619 13.4282 29.0619 13.4282C29.0619 13.4282 28.5269 13.0678 27.5987 13.8615Z" fill="#434E52"/>
<path d="M25.0732 12.8811C25.396 13.2753 25.8271 13.5667 26.3134 13.7193C26.3442 13.2058 26.223 12.6945 25.9649 12.2493C25.3569 11.3746 24.8097 11.5528 24.8097 11.5528C24.8097 11.5528 24.449 12.0104 25.0732 12.8811Z" fill="#434E52"/>
<path d="M27.465 11.966C27.2039 12.4635 27.0967 13.0273 27.157 13.5859C27.6831 13.4001 28.1427 13.0634 28.4783 12.618C29.0943 11.642 28.685 11.1723 28.685 11.1723C28.685 11.1723 28.0811 10.9901 27.465 11.966Z" fill="#434E52"/>
<path d="M25.0375 11.2131C25.444 11.4283 25.9052 11.5184 26.3629 11.4722C26.2066 11.0358 25.9245 10.6554 25.5523 10.3788C24.7417 9.86858 24.3607 10.2047 24.3607 10.2047C24.3607 10.2047 24.235 10.6988 25.0375 11.2131Z" fill="#434E52"/>
<path d="M27.2221 9.93694C27.0323 10.4563 27.0027 11.0205 27.137 11.5568C27.6245 11.307 28.0266 10.9179 28.2921 10.4391C28.7582 9.41454 28.2921 9.01362 28.2921 9.01362C28.2921 9.01362 27.6882 8.91238 27.2221 9.93694Z" fill="#434E52"/>
<path d="M26.3704 8.37394C26.3244 8.90631 26.4372 9.44037 26.6946 9.90875C27.0936 9.54862 27.3759 9.07763 27.5053 8.55617C27.6795 7.46682 27.1405 7.20764 27.1405 7.20764C27.1405 7.20764 26.5447 7.28459 26.3704 8.37394Z" fill="#434E52"/>
<path d="M24.6684 9.67011C25.0978 9.87179 25.5772 9.94224 26.0465 9.87259C25.8687 9.43217 25.564 9.05444 25.171 8.78729C24.3239 8.30133 23.9551 8.66985 23.9551 8.66985C23.9551 8.66985 23.8132 9.19225 24.6684 9.67011Z" fill="#434E52"/>
<path d="M25.313 6.83537C25.3462 7.33418 25.5268 7.81194 25.8318 8.2082C26.1506 7.81664 26.344 7.33829 26.3871 6.83537C26.3871 5.80677 25.8642 5.62048 25.8642 5.62048C25.8642 5.62048 25.3251 5.79867 25.313 6.83537Z" fill="#434E52"/>
<path d="M23.7924 8.20392C24.2631 8.32163 24.758 8.29767 25.2151 8.13508C24.9469 7.73679 24.5679 7.42567 24.1248 7.24011C23.1764 6.92019 22.8643 7.3616 22.8643 7.3616C22.8643 7.3616 22.844 7.884 23.7924 8.20392Z" fill="#434E52"/>
<path d="M24.0805 5.6893C24.1872 6.13673 24.4242 6.54256 24.7614 6.8556C24.994 6.45758 25.1026 5.99941 25.0735 5.53947C24.9317 4.604 24.421 4.53516 24.421 4.53516C24.421 4.53516 23.9346 4.75789 24.0805 5.6893Z" fill="#434E52"/>
<path d="M22.7064 5.10993C22.8996 5.49458 23.2029 5.81314 23.5778 6.02515C23.6936 5.61343 23.6852 5.1767 23.5535 4.76977C23.2171 3.95984 22.7428 4.00033 22.7428 4.00033C22.7428 4.00033 22.3659 4.29596 22.7064 5.10993Z" fill="#434E52"/>
<path d="M22.4873 6.93178C22.9149 6.9482 23.3378 6.83833 23.7032 6.61591C23.4006 6.31437 23.0157 6.10871 22.5967 6.02466C21.7213 5.91937 21.5308 6.35673 21.5308 6.35673C21.5308 6.35673 21.6118 6.83459 22.4873 6.93178Z" fill="#434E52"/>
<path d="M21.1867 5.52322C21.6252 5.6898 22.1031 5.72361 22.5607 5.62041C22.3545 5.19941 22.0271 4.84964 21.6204 4.61611C20.7489 4.21114 20.4044 4.58776 20.4044 4.58776C20.4044 4.58776 20.3153 5.10611 21.1867 5.52322Z" fill="#434E52"/>
<path d="M11.2931 6.24805C10.0897 7.27677 9.21234 8.63351 8.76823 10.1524C8.32411 11.6714 8.33251 13.2866 8.79239 14.8009C9.67191 17.8745 12.8455 20.5554 15.8894 20.7903L16.0393 21.4342C11.4553 20.442 9.12069 16.8662 8.58163 14.9548C8.10644 13.3993 8.11095 11.7368 8.59457 10.1839C9.07819 8.63101 10.0185 7.25954 11.2931 6.24805Z" fill="#434E52"/>
<path d="M11.5277 20.381C12.1632 20.3759 12.7861 20.5576 13.3191 20.9034C12.8599 21.3424 12.2798 21.6343 11.6533 21.7416C10.3442 21.8631 10.0767 21.203 10.0767 21.203C10.0767 21.203 10.2226 20.5025 11.5277 20.381Z" fill="#434E52"/>
<path d="M14.1912 18.3644C14.3105 18.9819 14.2413 19.621 13.9926 20.1988C13.4941 19.8208 13.1189 19.3036 12.9145 18.7126C12.5781 17.4734 13.1739 17.0928 13.1739 17.0928C13.1739 17.0928 13.8548 17.1252 14.1912 18.3644Z" fill="#434E52"/>
<path d="M9.98724 19.0368C10.5972 19.0889 11.1782 19.3199 11.6571 19.701C11.1748 20.0789 10.5905 20.3046 9.97913 20.3489C8.71457 20.3489 8.52002 19.6848 8.52002 19.6848C8.52002 19.6848 8.72267 19.0287 9.98724 19.0368Z" fill="#434E52"/>
<path d="M12.5451 17.3321C12.5214 17.9157 12.3254 18.4793 11.9818 18.9519C11.6031 18.5099 11.3635 17.9662 11.2927 17.3888C11.24 16.1739 11.8602 15.9592 11.8602 15.9592C11.8602 15.9592 12.5087 16.1212 12.5451 17.3321Z" fill="#434E52"/>
<path d="M8.71107 17.5016C9.32767 17.6249 9.8927 17.9312 10.3323 18.3804C9.79803 18.7019 9.17997 18.857 8.55706 18.8259C7.28438 18.6639 7.1709 17.9754 7.1709 17.9754C7.1709 17.9754 7.4384 17.3356 8.71107 17.5016Z" fill="#434E52"/>
<path d="M11.2652 16.0353C11.1453 16.554 10.8729 17.0251 10.4829 17.3879C10.2175 16.9291 10.0934 16.4022 10.1263 15.8733C10.2843 14.7961 10.872 14.707 10.872 14.707C10.872 14.707 11.4192 14.9581 11.2652 16.0353Z" fill="#434E52"/>
<path d="M8.09494 15.8173C8.60428 16.1214 9.01191 16.5695 9.26628 17.1051C8.68626 17.2277 8.08294 17.177 7.53156 16.9593C6.43723 16.4167 6.55071 15.7444 6.55071 15.7444C6.55071 15.7444 7.00061 15.2747 8.09494 15.8173Z" fill="#434E52"/>
<path d="M10.32 14.6547C10.1192 15.1182 9.78477 15.5116 9.35938 15.7845C9.19202 15.3076 9.16946 14.792 9.29453 14.3023C9.63499 13.3183 10.2024 13.3426 10.2024 13.3426C10.2024 13.3426 10.6604 13.6706 10.32 14.6547Z" fill="#434E52"/>
<path d="M7.52345 13.8615C7.93964 14.2817 8.22174 14.8159 8.33407 15.3963C7.74212 15.374 7.17041 15.1751 6.69256 14.8253C5.76846 14.0154 6.03596 13.4282 6.03596 13.4282C6.03596 13.4282 6.59934 13.0678 7.52345 13.8615Z" fill="#434E52"/>
<path d="M10.0776 12.8811C9.74927 13.2804 9.30883 13.5723 8.81299 13.7193C8.77976 13.2055 8.90115 12.6936 9.16156 12.2493C9.76547 11.3746 10.3167 11.5528 10.3167 11.5528C10.3167 11.5528 10.6774 12.0104 10.0776 12.8811Z" fill="#434E52"/>
<path d="M7.64466 11.9659C7.90571 12.4634 8.01292 13.0273 7.95269 13.5858C7.42658 13.4 6.96698 13.0633 6.63139 12.6179C6.02342 11.6298 6.42873 11.16 6.42873 11.16C6.42873 11.16 7.0448 10.99 7.64466 11.9659Z" fill="#434E52"/>
<path d="M10.0768 11.2131C9.67032 11.4283 9.20917 11.5184 8.75146 11.4722C8.90097 11.0377 9.176 10.6572 9.54182 10.3788C10.3524 9.86858 10.7334 10.2047 10.7334 10.2047C10.7334 10.2047 10.8874 10.6988 10.0768 11.2131Z" fill="#434E52"/>
<path d="M7.90056 9.93733C8.09032 10.4567 8.11997 11.0209 7.98568 11.5572C7.49733 11.3025 7.09644 10.9076 6.8346 10.4233C6.36849 9.39873 6.8346 8.99782 6.8346 8.99782C6.8346 8.99782 7.43446 8.91278 7.90056 9.93733Z" fill="#434E52"/>
<path d="M8.75594 8.37394C8.79898 8.90758 8.68186 9.44193 8.41953 9.90875C8.02091 9.5483 7.73872 9.07744 7.60891 8.55617C7.43463 7.46682 7.97369 7.20764 7.97369 7.20764C7.97369 7.20764 8.58165 7.28459 8.75594 8.37394Z" fill="#434E52"/>
<path d="M10.4821 9.67011C10.0527 9.87179 9.57329 9.94224 9.104 9.87259C9.28113 9.43296 9.58429 9.05539 9.97542 8.78729C10.8266 8.30133 11.1913 8.66985 11.1913 8.66985C11.1913 8.66985 11.3129 9.19225 10.4821 9.67011Z" fill="#434E52"/>
<path d="M9.81284 6.83537C9.77893 7.33472 9.59691 7.81265 9.28999 8.2082C8.9731 7.81589 8.78111 7.33773 8.73877 6.83537C8.73877 5.80677 9.26162 5.62048 9.26162 5.62048C9.26162 5.62048 9.80068 5.79867 9.81284 6.83537Z" fill="#434E52"/>
<path d="M11.3338 8.20392C10.8631 8.32163 10.3682 8.29767 9.91113 8.13508C10.178 7.73565 10.5574 7.42421 11.0014 7.24011C11.9458 6.92019 12.2619 7.3616 12.2619 7.3616C12.2619 7.3616 12.2781 7.884 11.3338 8.20392Z" fill="#434E52"/>
<path d="M11.0418 5.6893C10.9376 6.1368 10.7019 6.54295 10.3649 6.8556C10.1422 6.45446 10.0421 5.99686 10.0771 5.53947C10.2231 4.604 10.7337 4.53516 10.7337 4.53516C10.7337 4.53516 11.1877 4.75789 11.0418 5.6893Z" fill="#434E52"/>
<path d="M12.4196 5.10993C12.2263 5.49458 11.923 5.81314 11.5481 6.02515C11.4234 5.61597 11.4234 5.17895 11.5481 4.76977C11.8886 3.95984 12.3588 4.00033 12.3588 4.00033C12.3588 4.00033 12.756 4.29596 12.4196 5.10993Z" fill="#434E52"/>
<path d="M12.6349 6.93178C12.2072 6.94917 11.784 6.83923 11.4189 6.61591C11.7171 6.31714 12.096 6.11168 12.5092 6.02466C13.3847 5.91937 13.5792 6.35673 13.5792 6.35673C13.5792 6.35673 13.5144 6.83459 12.6349 6.93178Z" fill="#434E52"/>
<path d="M13.936 5.52322C13.4975 5.6898 13.0196 5.72361 12.562 5.62041C12.7696 5.20039 13.0967 4.85099 13.5023 4.61611C14.3778 4.21114 14.7183 4.58776 14.7183 4.58776C14.7183 4.58776 14.8115 5.10611 13.936 5.52322Z" fill="#434E52"/>
<path d="M16.1083 7.01795H20.0722C20.0991 7.01795 20.1249 7.02862 20.1439 7.0476C20.1629 7.06659 20.1735 7.09234 20.1735 7.11919V19.175C20.1735 19.2011 20.1836 19.2263 20.2018 19.2451C20.2199 19.264 20.2447 19.2751 20.2708 19.2762H21.6853C21.7122 19.2762 21.738 19.2869 21.757 19.3058C21.776 19.3248 21.7867 19.3506 21.7867 19.3774V21.6776C21.7867 21.7045 21.776 21.7302 21.757 21.7492C21.738 21.7682 21.7122 21.7789 21.6853 21.7789H13.5224C13.4955 21.7789 13.4698 21.7682 13.4508 21.7492C13.4318 21.7302 13.4211 21.7045 13.4211 21.6776V19.3896C13.4211 19.3627 13.4318 19.337 13.4508 19.318C13.4698 19.299 13.4955 19.2883 13.5224 19.2883H14.941C14.9679 19.2883 14.9937 19.2777 15.0127 19.2587C15.0317 19.2397 15.0423 19.2139 15.0423 19.1871V11.7398C15.0423 11.713 15.0317 11.6872 15.0127 11.6682C14.9937 11.6492 14.9679 11.6386 14.941 11.6386H12.8131C12.787 11.6375 12.7622 11.6264 12.7441 11.6075C12.726 11.5887 12.7158 11.5635 12.7159 11.5373V9.64211C12.7153 9.6212 12.7212 9.60063 12.7328 9.58323C12.7445 9.56583 12.7612 9.55244 12.7807 9.54492C14.1099 9.10481 15.2521 8.23036 16.0232 7.0625C16.0326 7.04861 16.0453 7.03728 16.0601 7.0295C16.075 7.02173 16.0915 7.01776 16.1083 7.01795Z" fill="url(#paint9_linear)"/>
<path style="mix-blend-mode:multiply" d="M17.8381 23.439C21.6301 23.439 24.704 23.1816 24.704 22.864C24.704 22.5464 21.6301 22.2889 17.8381 22.2889C14.0462 22.2889 10.9722 22.5464 10.9722 22.864C10.9722 23.1816 14.0462 23.439 17.8381 23.439Z" fill="url(#paint10_radial)"/>
<defs>
<linearGradient id="paint0_linear" x1="4" y1="29.4082" x2="30.5599" y2="29.4082" gradientUnits="userSpaceOnUse">
<stop stop-color="#AEAEAE"/>
<stop offset="1" stop-color="#828282"/>
</linearGradient>
<linearGradient id="paint1_linear" x1="4" y1="28.8255" x2="30.5599" y2="28.8255" gradientUnits="userSpaceOnUse">
<stop stop-color="#CFCFCF"/>
<stop offset="0.05" stop-color="#DFDFDF"/>
<stop offset="0.23" stop-color="#E1E1E1"/>
<stop offset="0.42" stop-color="#CFCFCF"/>
<stop offset="0.56" stop-color="#B9B9B9"/>
<stop offset="0.67" stop-color="#ABABAB"/>
<stop offset="0.85" stop-color="#B5B5B5"/>
<stop offset="1" stop-color="#AEAEAE"/>
</linearGradient>
<linearGradient id="paint2_linear" x1="7.25926" y1="26.4725" x2="26.9612" y2="27.6367" gradientUnits="userSpaceOnUse">
<stop stop-color="#F0F0F0"/>
<stop offset="1" stop-color="#F5F5F5"/>
</linearGradient>
<linearGradient id="paint3_linear" x1="6.52881" y1="27.0796" x2="28.0669" y2="27.0796" gradientUnits="userSpaceOnUse">
<stop stop-color="#BABABA"/>
<stop offset="1" stop-color="#8C8C8C"/>
</linearGradient>
<linearGradient id="paint4_linear" x1="520.006" y1="240.935" x2="1664.54" y2="240.935" gradientUnits="userSpaceOnUse">
<stop stop-color="#CFCFCF"/>
<stop offset="0.05" stop-color="#DFDFDF"/>
<stop offset="0.23" stop-color="#E1E1E1"/>
<stop offset="0.42" stop-color="#CFCFCF"/>
<stop offset="0.56" stop-color="#B9B9B9"/>
<stop offset="0.67" stop-color="#ABABAB"/>
<stop offset="0.85" stop-color="#B5B5B5"/>
<stop offset="1" stop-color="#AEAEAE"/>
</linearGradient>
<linearGradient id="paint5_linear" x1="653.555" y1="139.454" x2="1155.61" y2="553.552" gradientUnits="userSpaceOnUse">
<stop stop-color="#F0F0F0"/>
<stop offset="1" stop-color="#F5F5F5"/>
</linearGradient>
<linearGradient id="paint6_linear" x1="506.314" y1="115.604" x2="1195.14" y2="115.604" gradientUnits="userSpaceOnUse">
<stop stop-color="#BABABA"/>
<stop offset="1" stop-color="#8C8C8C"/>
</linearGradient>
<linearGradient id="paint7_linear" x1="505.732" y1="193.523" x2="1193.72" y2="193.523" gradientUnits="userSpaceOnUse">
<stop stop-color="#CFCFCF"/>
<stop offset="0.05" stop-color="#DFDFDF"/>
<stop offset="0.23" stop-color="#E1E1E1"/>
<stop offset="0.42" stop-color="#CFCFCF"/>
<stop offset="0.56" stop-color="#B9B9B9"/>
<stop offset="0.67" stop-color="#ABABAB"/>
<stop offset="0.85" stop-color="#B5B5B5"/>
<stop offset="1" stop-color="#AEAEAE"/>
</linearGradient>
<linearGradient id="paint8_linear" x1="584.036" y1="103.28" x2="877.927" y2="353.655" gradientUnits="userSpaceOnUse">
<stop stop-color="#F0F0F0"/>
<stop offset="1" stop-color="#F5F5F5"/>
</linearGradient>
<linearGradient id="paint9_linear" x1="17.2513" y1="21.7789" x2="17.2513" y2="7.01795" gradientUnits="userSpaceOnUse">
<stop stop-color="#FAB211"/>
<stop offset="0.51" stop-color="#FFB215"/>
<stop offset="1" stop-color="#FFC226"/>
</linearGradient>
<radialGradient id="paint10_radial" cx="0" cy="0" r="1" gradientUnits="userSpaceOnUse" gradientTransform="translate(17.8381 22.8593) scale(6.86188 0.548482)">
<stop stop-color="#F0CCA3"/>
<stop offset="0.36" stop-color="#F6E1CA"/>
<stop offset="0.78" stop-color="#FDF7F0"/>
<stop offset="1" stop-color="white"/>
</radialGradient>
</defs>
</svg>
