<svg width="22" height="22" viewBox="0 0 22 22" fill="none" xmlns="http://www.w3.org/2000/svg">
<path d="M15.8359 11.5723C14.651 11.5723 13.6875 12.5358 13.6875 13.7207C13.6875 14.9056 14.651 15.8691 15.8359 15.8691C17.0208 15.8691 18.0202 14.9056 18.0202 13.7207C18.0202 12.5358 17.0208 11.5723 15.8359 11.5723Z" fill="#FB8F53"/>
<path d="M18.5573 1.83398H13.1504C12.2619 1.83398 11.5391 2.5926 11.5391 3.48112V5.66536C11.5391 6.36561 11.9881 6.96302 12.6133 7.18492V8.88802C12.6133 9.10516 12.7439 9.30134 12.9448 9.3842C13.1429 9.46681 13.3751 9.42277 13.5302 9.26776L15.5212 7.27669H18.5573C19.4458 7.27669 20.1686 6.55389 20.1686 5.66536V3.48112C20.1686 2.5926 19.4458 1.83398 18.5573 1.83398Z" fill="#FB8F53"/>
<path d="M10.5212 19.3771C10.5924 18.896 10.7469 18.4469 10.9373 18.0176H1.83398V19.6289C1.83398 19.9258 2.07422 20.166 2.37109 20.166H10.6071C10.5171 19.9158 10.4815 19.647 10.5212 19.3771Z" fill="#FB8F53"/>
<path d="M12.612 14.7949H3.44531C2.55679 14.7949 1.83398 15.5177 1.83398 16.4062V16.9434H11.5636C11.9037 16.4959 12.3127 16.1113 12.7716 15.789C12.6696 15.4754 12.612 15.1421 12.612 14.7949Z" fill="#FB8F53"/>
<path d="M20.1212 19.5353C19.9114 18.1167 18.9614 16.9363 17.719 16.3242C17.1878 16.71 16.5401 16.9443 15.8348 16.9443C15.1295 16.9443 14.4819 16.71 13.9507 16.3243C12.7083 16.9363 11.7941 18.1167 11.5842 19.5353C11.5354 19.8655 11.7849 20.1669 12.1187 20.1669H19.5868C19.9205 20.1669 20.1701 19.8655 20.1212 19.5353Z" fill="#FB8F53"/>
<path d="M7.77734 5.12695C6.59244 5.12695 5.62891 6.09049 5.62891 7.27539C5.62891 8.46029 6.59244 9.42383 7.77734 9.42383C8.96224 9.42383 9.92578 8.46029 9.92578 7.27539C9.92578 6.09049 8.96224 5.12695 7.77734 5.12695Z" fill="#FB8F53"/>
<path d="M12.0294 13.09C11.8196 11.6714 10.9054 10.491 9.66301 9.87891C9.13177 10.2647 8.48413 10.499 7.77883 10.499C7.07353 10.499 6.42589 10.2647 5.89469 9.87894C4.65228 10.491 3.70231 11.6714 3.49245 13.09C3.44361 13.4202 3.69315 13.7216 4.02687 13.7216H11.495C11.8287 13.7216 12.0783 13.4202 12.0294 13.09Z" fill="#FB8F53"/>
</svg>
