<svg width="34" height="34" viewBox="0 0 34 34" fill="none" xmlns="http://www.w3.org/2000/svg">
<g clip-path="url(#clip0)">
<path d="M13.9227 24.7231C13.9227 24.7231 12.9757 25.3751 14.5967 25.5958C16.5605 25.861 17.5641 25.823 19.7282 25.338C19.7282 25.338 20.2972 25.7604 21.0917 26.1263C16.2404 28.588 10.1122 25.9837 13.9227 24.7231ZM13.3299 21.5106C13.3299 21.5106 12.2677 22.4416 13.8899 22.6402C15.9877 22.8964 17.6443 22.9174 20.5109 22.2638C20.5109 22.2638 20.9074 22.7397 21.5309 23C15.6653 25.0308 9.13222 23.1602 13.3299 21.5106Z" fill="#5382A1"/>
<path d="M18.3288 16.0613C19.5242 17.6907 18.0148 19.157 18.0148 19.157C18.0148 19.157 21.05 17.3019 19.656 14.9787C18.3542 12.8124 17.3557 11.7358 22.7606 8.02448C22.7606 8.02448 14.2768 10.5332 18.3288 16.0612" fill="#E76F00"/>
<path d="M24.745 27.099C24.745 27.099 25.4458 27.7826 23.9731 28.3116C21.1729 29.316 12.3182 29.6193 9.8584 28.3516C8.9742 27.8962 10.6324 27.2642 11.154 27.1315C11.6979 26.9918 12.0088 27.0179 12.0088 27.0179C11.0255 26.1976 5.65278 28.6284 9.27979 29.3244C19.1711 31.2237 27.3106 28.4693 24.745 27.099ZM14.3793 18.182C14.3793 18.182 9.87534 19.4486 12.7844 19.9085C14.0127 20.1032 16.4612 20.0592 18.742 19.8329C20.606 19.6468 22.4776 19.251 22.4776 19.251C22.4776 19.251 21.8204 19.5842 21.3449 19.9687C16.7711 21.3929 7.93536 20.7304 10.4791 19.2735C12.6303 18.0423 14.3794 18.182 14.3794 18.182H14.3793ZM22.4591 23.5292C27.1086 20.6686 24.9588 17.9196 23.4584 18.29C23.0906 18.3806 22.9266 18.4591 22.9266 18.4591C22.9266 18.4591 23.0631 18.2059 23.3239 18.0963C26.2923 16.8607 28.5752 21.7406 22.3656 23.6734C22.3656 23.6735 22.4376 23.5973 22.4591 23.5292Z" fill="#5382A1"/>
<path d="M19.6553 2.03176C19.6553 2.03176 22.2303 5.08164 17.2131 9.77124C13.1899 13.5332 16.2957 15.6782 17.2114 18.1288C14.863 15.6201 13.1395 13.4116 14.2958 11.3562C15.9928 8.3389 20.6942 6.87606 19.6553 2.03168" fill="#E76F00"/>
<path d="M14.8361 31.281C19.299 31.6193 26.1523 31.0933 26.3146 28.593C26.3146 28.593 26.0027 29.5409 22.6263 30.2936C18.8171 31.1423 14.119 31.0433 11.3325 30.4993C11.3326 30.4993 11.903 31.0583 14.8362 31.281" fill="#5382A1"/>
</g>
<defs>
<clipPath id="clip0">
<rect width="18.3715" height="29.3944" fill="white" transform="translate(8 2)"/>
</clipPath>
</defs>
</svg>
