<svg width="34" height="34" viewBox="0 0 34 34" fill="none" xmlns="http://www.w3.org/2000/svg">
<path d="M7.71874 15.6875L6.21874 14.1875L4.90343 15.5028C5.28195 12.4215 6.82204 9.60086 9.2094 7.61642C11.5968 5.63198 14.6514 4.63338 17.75 4.82441C20.8485 5.01545 23.7574 6.38172 25.8829 8.64439C28.0084 10.9071 29.1903 13.8956 29.1875 17H30.5937L27.7812 19.8125L24.9687 17H26.375C26.3725 14.6292 25.4718 12.3474 23.8544 10.614C22.237 8.88067 20.0229 7.82446 17.6579 7.65808C15.293 7.49171 12.9528 8.22751 11.1086 9.71735C9.26442 11.2072 8.05317 13.3404 7.71874 15.6875Z" fill="#F0AE42"/>
<path d="M29.0966 18.4972C28.718 21.5785 27.1779 24.3991 24.7906 26.3836C22.4032 28.368 19.3486 29.3666 16.25 29.1756C13.1515 28.9846 10.2426 27.6183 8.1171 25.3556C5.99159 23.0929 4.80965 20.1044 4.8125 17H3.40625L6.21875 14.1875L9.03125 17H7.625C7.62274 19.3739 8.52111 21.6602 10.1388 23.3975C11.7565 25.1349 13.973 26.1939 16.341 26.3607C18.709 26.5276 21.0521 25.7899 22.8974 24.2966C24.7428 22.8033 25.9529 20.6656 26.2836 18.3148L27.7812 19.8125L29.0966 18.4972Z" fill="#B52F28"/>
<path d="M3.60782 14.2916L2.6886 14.1041C2.75235 13.7895 2.82922 13.4708 2.915 13.1567L3.81876 13.4052C3.73813 13.7 3.66735 14 3.60782 14.2916ZM30.3884 14.2714C30.3289 13.9784 30.2567 13.6803 30.1756 13.3869L31.0794 13.137C31.1666 13.4511 31.243 13.7698 31.3067 14.0839L30.3884 14.2714ZM4.09157 12.537L3.20469 12.2277C3.3125 11.9202 3.4311 11.6141 3.55672 11.3188L4.41922 11.6877C4.3011 11.9633 4.19047 12.2488 4.09016 12.5366L4.09157 12.537ZM29.9047 12.5188C29.8044 12.2338 29.6933 11.9488 29.5766 11.6708L30.4381 11.3019C30.5656 11.5986 30.6842 11.9033 30.7911 12.208L29.9047 12.5188ZM4.80501 10.8617L3.96875 10.4375C4.11688 10.1474 4.27485 9.86048 4.44032 9.58438L5.24563 10.0625C5.09094 10.3227 4.94282 10.5908 4.80501 10.8617ZM29.1875 10.8467C29.0511 10.58 28.903 10.3124 28.7469 10.0499L29.5503 9.56751C29.7181 9.84876 29.8784 10.1333 30.0223 10.4192L29.1875 10.8467ZM5.73922 9.29845L4.96813 8.76548C5.15094 8.50157 5.34594 8.2386 5.54891 7.9836L6.28251 8.5672C6.09219 8.80626 5.90985 9.05188 5.73922 9.29845ZM28.2528 9.28626C28.0803 9.03782 27.897 8.7922 27.7091 8.55595L28.4413 7.97095C28.6428 8.2236 28.8388 8.48657 29.0225 8.75141L28.2528 9.28626ZM6.87501 7.87392L6.18032 7.24251C6.39782 7.00392 6.6261 6.76907 6.8586 6.54548L7.50876 7.22142C7.29001 7.43142 7.07875 7.64892 6.87501 7.87392ZM27.1189 7.8636C26.9142 7.63892 26.7022 7.42142 26.4828 7.2111L27.1297 6.5347C27.3613 6.75642 27.5895 6.99079 27.8094 7.23079L27.1189 7.8636ZM8.18751 6.61204L7.58282 5.89438C7.82985 5.68673 8.08719 5.4847 8.34782 5.29345L8.90282 6.05001C8.65751 6.22907 8.41907 6.41642 8.18751 6.61204ZM25.8031 6.60267C25.5703 6.40704 25.3313 6.21954 25.0859 6.04017L25.64 5.28313C25.8997 5.47392 26.1556 5.67548 26.4055 5.88407L25.8031 6.60267ZM9.65422 5.53579L9.15172 4.74454C9.4236 4.57204 9.70485 4.40564 9.98891 4.25095L10.4375 5.0736C10.1719 5.21954 9.91079 5.3736 9.65422 5.53579ZM24.3327 5.52735C24.0761 5.36517 23.8141 5.2111 23.5466 5.06517L23.9952 4.24157C24.2764 4.39579 24.5577 4.56173 24.8342 4.73517L24.3327 5.52735ZM11.2513 4.66439L10.8594 3.81267C11.1538 3.6772 11.4556 3.5497 11.7561 3.43485L12.0908 4.31001C11.8063 4.41923 11.5259 4.53735 11.2513 4.66439ZM22.7323 4.65642C22.4567 4.52939 22.1741 4.41079 21.8923 4.30345L22.2261 3.42735C22.5275 3.5422 22.8298 3.66923 23.1242 3.80517L22.7323 4.65642ZM12.95 4.01564L12.6739 3.11985C12.9847 3.0261 13.3006 2.93798 13.6114 2.86439L13.8266 3.77704C13.5359 3.8436 13.2406 3.92189 12.95 4.01564ZM21.0313 4.0072C20.7409 3.91907 20.4475 3.83985 20.1509 3.76954L20.3652 2.85689C20.6769 2.93001 20.9933 3.01532 21.3027 3.11095L21.0313 4.0072ZM14.7214 3.59376L14.5667 2.66939C14.8831 2.61642 15.2075 2.57329 15.5305 2.54095L15.6242 3.47376C15.3202 3.50407 15.0192 3.54407 14.7214 3.59376ZM19.2575 3.59001C18.9603 3.54314 18.6561 3.50095 18.3552 3.47142L18.4456 2.5386C18.7677 2.57001 19.093 2.61267 19.4108 2.66517L19.2575 3.59001ZM16.5313 3.41423L16.4999 2.47673C16.8233 2.46548 17.1491 2.46548 17.473 2.47673L17.4434 3.41423C17.1406 3.40626 16.8345 3.40626 16.5313 3.41423Z" fill="#CCCCCC"/>
<path d="M17.0352 31.5313C16.8636 31.5289 16.6948 31.5313 16.5242 31.5233L16.5556 30.5858C16.715 30.5909 16.8758 30.5947 17.0338 30.5928C17.1795 30.5928 17.323 30.59 17.4664 30.5853L17.4983 31.5228C17.3445 31.5284 17.1898 31.5313 17.0352 31.5313ZM15.5544 31.4609C15.2352 31.4295 14.9108 31.3869 14.5892 31.3339L14.7425 30.4091C15.0397 30.4559 15.3411 30.4981 15.6448 30.5277L15.5544 31.4609ZM18.4691 31.4586L18.3753 30.5253C18.6786 30.4953 18.98 30.455 19.2777 30.4058L19.4314 31.3302C19.1122 31.3841 18.7873 31.4267 18.4691 31.4586ZM13.6344 31.1436C13.3194 31.0695 13.0039 30.9838 12.6969 30.8895L12.9706 29.9933C13.2606 30.0814 13.5541 30.1606 13.8509 30.2309L13.6344 31.1436ZM20.3872 31.138L20.1711 30.2263C20.4678 30.1555 20.7608 30.0763 21.0505 29.9867L21.3261 30.883C21.0186 30.9772 20.7031 31.0625 20.3872 31.138ZM11.7739 30.5755C11.4706 30.4597 11.1688 30.3327 10.8758 30.1977L11.2677 29.3464C11.5423 29.473 11.8231 29.5906 12.1077 29.6994L11.7739 30.5755ZM22.2444 30.5675L21.9106 29.6914C22.1919 29.585 22.4731 29.4659 22.7483 29.338L23.142 30.1897C22.8463 30.3238 22.5439 30.4531 22.2444 30.5652V30.5675ZM10.0048 29.758C9.71985 29.6028 9.43719 29.4364 9.16578 29.2644L9.66735 28.4727C9.92391 28.6349 10.1859 28.7889 10.4534 28.9349L10.0048 29.758ZM24.0111 29.7495L23.5625 28.9264C23.8288 28.7811 24.0902 28.627 24.3467 28.4642L24.8492 29.2555C24.5745 29.4294 24.2933 29.5953 24.0111 29.75V29.7495ZM8.36141 28.7183C8.09985 28.5264 7.84469 28.3264 7.59594 28.1183L8.19781 27.3997C8.43063 27.5947 8.66985 27.7822 8.91547 27.9622L8.36141 28.7183ZM25.6522 28.7084L25.0972 27.9528C25.3422 27.7734 25.5811 27.5859 25.8139 27.3903L26.4172 28.108C26.1706 28.3124 25.9133 28.5144 25.6522 28.7061V28.7084ZM6.87031 27.4653C6.63594 27.2422 6.4086 27.0078 6.19063 26.7692L6.88297 26.1364C7.08766 26.3614 7.29969 26.5789 7.51906 26.7889L6.87031 27.4653ZM27.1419 27.4531L26.4908 26.7781C26.7095 26.5672 26.9216 26.3494 27.1269 26.1247L27.8197 26.7561C27.6031 26.9947 27.3753 27.2291 27.1419 27.4531ZM5.55875 26.0291C5.35485 25.7741 5.15938 25.5111 4.97703 25.2477L5.75 24.7138C5.92016 24.9599 6.10297 25.2055 6.29328 25.4441L5.55875 26.0291ZM28.4511 26.0164L27.7175 25.4324C27.9073 25.1942 28.0897 24.9486 28.2608 24.7016L29.0319 25.235C28.8486 25.4994 28.6531 25.7624 28.4511 26.0164ZM4.4511 24.4311C4.28328 24.1499 4.12297 23.8653 3.97906 23.5789L4.8125 23.1533C4.94891 23.42 5.09703 23.6881 5.25313 23.9502L4.4511 24.4311ZM29.5602 24.4166L28.7544 23.9375C28.9091 23.6797 29.0572 23.4116 29.195 23.1406L30.0313 23.5625C29.8827 23.8536 29.7247 24.1405 29.5592 24.4166H29.5602ZM3.56516 22.6986C3.43813 22.4024 3.31906 22.0981 3.21219 21.7935L4.09672 21.4822C4.19703 21.7691 4.30641 22.0516 4.42485 22.3297L3.56516 22.6986ZM30.4433 22.6813L29.5808 22.3133C29.6994 22.0358 29.81 21.7508 29.9089 21.4635L30.7944 21.7733C30.6875 22.0789 30.5698 22.3845 30.4433 22.6813ZM2.9211 20.863C2.83391 20.5485 2.7575 20.2302 2.69328 19.9161L3.61156 19.7286C3.67156 20.022 3.74328 20.3197 3.82485 20.6136L2.9211 20.863ZM31.085 20.8438L30.1813 20.5958C30.2619 20.301 30.3331 20.0028 30.3922 19.7103L31.3114 19.8978C31.25 20.2081 31.1717 20.5269 31.085 20.8438Z" fill="#CCCCCC"/>
<path d="M23.5625 18.4062V15.5938H22.4408C22.31 15.0858 22.1083 14.5989 21.8417 14.1472L22.6348 13.3541L20.6459 11.3652L19.8528 12.1583C19.4011 11.8917 18.9142 11.69 18.4062 11.5592V10.4375H15.5938V11.5592C15.0858 11.69 14.5989 11.8917 14.1472 12.1583L13.3541 11.3652L11.3652 13.3541L12.1583 14.1472C11.8917 14.5989 11.69 15.0858 11.5592 15.5938H10.4375V18.4062H11.5592C11.69 18.9142 11.8917 19.4011 12.1583 19.8528L11.3652 20.6459L13.3541 22.6348L14.1472 21.8417C14.5989 22.1083 15.0858 22.31 15.5938 22.4408V23.5625H18.4062V22.4408C18.9142 22.31 19.4011 22.1083 19.8528 21.8417L20.6459 22.6348L22.6348 20.6459L21.8417 19.8528C22.1083 19.4011 22.31 18.9142 22.4408 18.4062H23.5625Z" fill="#474747"/>
<path d="M17 20.2812C18.8122 20.2812 20.2812 18.8122 20.2812 17C20.2812 15.1878 18.8122 13.7188 17 13.7188C15.1878 13.7188 13.7188 15.1878 13.7188 17C13.7188 18.8122 15.1878 20.2812 17 20.2812Z" fill="#F2F2F2"/>
</svg>
