<svg width="34" height="34" viewBox="0 0 34 34" fill="none" xmlns="http://www.w3.org/2000/svg">
<path d="M29.5297 24.0517C29.2778 23.9258 29.026 23.9258 28.9 24.0517C26.3815 25.9406 22.1 27.0739 17.3148 27.0739C12.5297 27.0739 8.24818 25.9406 5.72965 24.0517C5.47778 23.9258 5.22596 23.9258 5.1 24.0517C4.84813 24.1776 4.72222 24.4295 4.72222 24.5554V26.4443C4.72222 29.5923 10.263 32.1109 17.3148 32.1109C24.3666 32.1109 29.9073 29.5923 29.9073 26.4443V24.5554C29.9074 24.3036 29.7815 24.0517 29.5297 24.0517Z" fill="#8F5FE3"/>
<path d="M29.5297 11.3333C29.2778 11.2074 29.026 11.2074 28.9 11.3333C26.3815 13.2221 22.1 14.3555 17.3148 14.3555C12.5297 14.3555 8.24818 13.2221 5.72965 11.3333C5.47778 11.2074 5.22596 11.2074 5.1 11.3333C4.84813 11.4592 4.72222 11.711 4.72222 11.837V13.7258C4.72222 16.8739 10.263 19.3924 17.3148 19.3924C24.3666 19.3924 29.9073 16.8739 29.9073 13.7258V11.837C29.9074 11.711 29.7815 11.4592 29.5297 11.3333Z" fill="#BF9CFC"/>
<path d="M17.3158 13.2221C24.3676 13.2221 29.9083 10.7036 29.9083 7.55549C29.9083 4.40739 24.3676 1.88887 17.3158 1.88887C10.264 1.88887 4.72322 4.40739 4.72322 7.55549C4.72322 10.7036 10.2639 13.2221 17.3158 13.2221Z" fill="#BF9CFC"/>
<path d="M29.5297 17.6296C29.2778 17.5036 29.026 17.5036 28.9 17.6296C26.3815 19.5184 22.1 20.6517 17.3148 20.6517C12.5297 20.6517 8.24818 19.5184 5.72965 17.6296C5.47778 17.5036 5.22596 17.5036 5.1 17.6296C4.84813 17.7555 4.72222 18.0073 4.72222 18.1332V20.0221C4.72222 23.1702 10.263 25.6887 17.3148 25.6887C24.3666 25.6887 29.9073 23.1702 29.9073 20.0221V18.1332C29.9074 18.0073 29.7815 17.7555 29.5297 17.6296Z" fill="#A774FF"/>
</svg>
