<svg width="34" height="34" viewBox="0 0 34 34" fill="none" xmlns="http://www.w3.org/2000/svg">
<path d="M29.0349 6.46949H27.5305V4.96513C27.5305 4.50677 27.1589 4.13514 26.7005 4.13514H22.7581C22.2996 4.13514 21.9281 4.50677 21.9281 4.96513V6.46949H20.4237C19.9653 6.46949 19.5937 6.84112 19.5937 7.29948V9.53008C19.5937 9.75926 19.7795 9.94508 20.0087 9.94508H29.4499C29.679 9.94508 29.8649 9.75926 29.8649 9.53008V7.29948C29.8649 6.84112 29.4933 6.46949 29.0349 6.46949ZM25.8705 6.46949H23.5881V5.79512H25.8705V6.46949ZM29.8649 12.0201V13.265C29.8649 13.7234 29.4933 14.095 29.0349 14.095H20.4237C19.9653 14.095 19.5937 13.7234 19.5937 13.265V12.0201C19.5937 11.7909 19.7795 11.6051 20.0087 11.6051H29.4499C29.679 11.6051 29.8649 11.7909 29.8649 12.0201ZM29.8649 29.0349C29.8649 29.4932 29.4932 29.8649 29.0349 29.8649C28.6946 29.8649 5.28425 29.8649 4.96512 29.8649C4.50676 29.8649 4.13513 29.4932 4.13513 29.0349C4.13513 28.5765 4.50676 28.2049 4.96512 28.2049H6.27143V23.5079C6.27143 23.0496 6.64305 22.6779 7.10142 22.6779H11.4448C11.9031 22.6779 12.2748 23.0496 12.2748 23.5079V28.2049H13.9984V20.0205C13.9984 19.5621 14.37 19.1905 14.8284 19.1905H19.1717C19.6301 19.1905 20.0017 19.5621 20.0017 20.0205V28.2049H21.7253V16.5331C21.7253 16.0748 22.097 15.7031 22.5553 15.7031H26.8987C27.357 15.7031 27.7287 16.0748 27.7287 16.5331V28.2049H29.0349C29.4932 28.2049 29.8649 28.5765 29.8649 29.0349ZM6.1269 18.3485C9.24772 18.2713 12.3703 17.2042 14.9257 15.0594C15.2386 15.8965 16.4821 15.7107 16.5319 14.8154L16.6356 12.9479C16.6645 12.4281 16.2121 12.0095 15.6958 12.0793L13.7764 12.3387C12.8927 12.4582 12.7985 13.7038 13.6525 13.9568C11.4422 15.7323 8.77105 16.6226 6.08587 16.689C5.62761 16.7003 5.26532 17.081 5.27663 17.5392C5.28799 17.9994 5.67087 18.3601 6.1269 18.3485Z" fill="#F5726E"/>
<path d="M29.8649 29.0349C29.8649 29.4932 29.4932 29.8649 29.0349 29.8649C28.6946 29.8649 5.28425 29.8649 4.96512 29.8649C4.50676 29.8649 4.13513 29.4932 4.13513 29.0349C4.13513 28.5765 4.50676 28.2049 4.96512 28.2049H6.27143V23.5079C6.27143 23.0496 6.64305 22.6779 7.10142 22.6779H11.4448C11.9031 22.6779 12.2748 23.0496 12.2748 23.5079V28.2049H13.9984V20.0205C13.9984 19.5621 14.37 19.1905 14.8284 19.1905H19.1717C19.6301 19.1905 20.0017 19.5621 20.0017 20.0205V28.2049H21.7253V16.5331C21.7253 16.0748 22.097 15.7032 22.5553 15.7032H26.8987C27.357 15.7032 27.7287 16.0748 27.7287 16.5331V28.2049H29.0349C29.4932 28.2049 29.8649 28.5765 29.8649 29.0349ZM6.1269 18.3485C9.24772 18.2713 12.3703 17.2042 14.9257 15.0594C15.2386 15.8965 16.4821 15.7107 16.5319 14.8154L16.6356 12.9479C16.6645 12.4281 16.2121 12.0095 15.6958 12.0794L13.7764 12.3387C12.8927 12.4582 12.7985 13.7038 13.6525 13.9568C11.4422 15.7324 8.77105 16.6226 6.08587 16.689C5.62761 16.7003 5.26532 17.081 5.27663 17.5393C5.28799 17.9994 5.67087 18.3601 6.1269 18.3485Z" fill="#52CFEE"/>
</svg>
