<svg width="34" height="34" viewBox="0 0 34 34" fill="none" xmlns="http://www.w3.org/2000/svg">
<path d="M26.1071 29.75H23.1203L22.5131 27.9286H11.4869L10.8797 29.75H7.89286C7.3896 29.75 6.98215 30.1574 6.98215 30.6607C6.98215 31.164 7.3896 31.5714 7.89286 31.5714H26.1071C26.6104 31.5714 27.0179 31.164 27.0179 30.6607C27.0179 30.1574 26.6104 29.75 26.1071 29.75Z" fill="#557CD9"/>
<path d="M26.1071 7.89285C25.6046 7.89285 25.1964 8.30101 25.1964 8.80357C25.1964 9.30612 25.6046 9.71428 26.1071 9.71428C26.6097 9.71428 27.0179 9.30612 27.0179 8.80357C27.0179 8.30101 26.6097 7.89285 26.1071 7.89285Z" fill="#F1B710"/>
<path d="M29.75 2.42857H4.18929C2.68282 2.42857 1.45715 3.65424 1.45715 5.16072V20.6429H6.98215V17.9107C6.98215 17.4075 7.38959 17 7.89286 17H9.29996C9.39411 16.7351 9.50179 16.4752 9.62369 16.22L8.62831 15.2239C8.27256 14.8681 8.27256 14.2918 8.62831 13.9361L11.2039 11.3605C11.5597 11.0047 12.136 11.0047 12.4917 11.3605L13.4878 12.3565C13.743 12.2346 14.0027 12.1263 14.2679 12.0319V10.625C14.2679 10.1217 14.6753 9.71429 15.1786 9.71429H18.8214C19.3247 9.71429 19.7321 10.1217 19.7321 10.625V12.0321C19.9971 12.1263 20.257 12.2349 20.5122 12.3565L21.5083 11.3605C21.864 11.0049 22.4403 11.0049 22.7961 11.3605L25.3717 13.9361C25.7274 14.2918 25.7274 14.8684 25.3717 15.2239L24.3763 16.22C24.4982 16.4754 24.6059 16.7351 24.7 17H26.1071C26.6104 17 27.0179 17.4075 27.0179 17.9107V20.6429H32.5429V5.16072C32.5429 3.65424 31.2565 2.42857 29.75 2.42857ZM26.1071 11.5357C24.6007 11.5357 23.375 10.31 23.375 8.80357C23.375 7.2971 24.6007 6.07143 26.1071 6.07143C27.6136 6.07143 28.8393 7.2971 28.8393 8.80357C28.8393 10.31 27.6136 11.5357 26.1071 11.5357Z" fill="#49ADC5"/>
<path d="M14.2679 19.7321C14.2679 20.0469 14.3404 20.3504 14.4445 20.6429H19.5555C19.6596 20.3504 19.7321 20.0469 19.7321 19.7321C19.7321 18.2257 18.5065 17 17 17C15.4933 17 14.2679 18.2257 14.2679 19.7321V19.7321Z" fill="#F1B710"/>
<path d="M10.8543 18.1384C10.7505 18.5404 10.3876 18.8214 9.97209 18.8214H8.80357V20.6429H12.5662C12.505 20.3429 12.4464 20.0414 12.4464 19.7322C12.4464 17.2215 14.4894 15.1786 17 15.1786C19.5106 15.1786 21.5536 17.2215 21.5536 19.7322C21.5536 20.0414 21.495 20.3429 21.4338 20.6429H25.1964V18.8214H24.0279C23.6124 18.8214 23.2495 18.5404 23.1457 18.1384C23.0005 17.5737 22.7738 17.0275 22.4714 16.5152C22.2606 16.1578 22.3184 15.7025 22.6118 15.4089L23.44 14.58L22.1522 13.2922L21.3233 14.1211C21.0297 14.4156 20.5734 14.4742 20.216 14.2607C19.7046 13.9593 19.1594 13.7316 18.5938 13.5865C18.1918 13.4826 17.9107 13.1197 17.9107 12.7042V11.5357H16.0893V12.7042C16.0893 13.1197 15.8082 13.4826 15.4063 13.5865C14.8406 13.7316 14.2954 13.9593 13.784 14.2607C13.4283 14.4742 12.971 14.4156 12.6767 14.1211L11.8478 13.2922L10.56 14.58L11.3882 15.4089C11.6816 15.7025 11.7394 16.1578 11.5286 16.5152C11.2262 17.0275 10.9995 17.5737 10.8543 18.1384Z" fill="#F1B710"/>
<path d="M1.45715 23.375C1.45715 24.8815 2.68282 26.1071 4.18929 26.1071H29.75C31.2565 26.1071 32.5429 24.8815 32.5429 23.375V22.4643H1.45715V23.375Z" fill="#557CD9"/>
</svg>
